<svg xmlns="http://www.w3.org/2000/svg" viewBox="0 0 25 25"><path clip-rule="evenodd" d="M5.62 23.913c-.558-.163-1.09-.486-1.597-.969-.508-.49-.846-1.003-1.015-1.54a2.644 2.644 0 0 1-.01-1.602c.161-.537.493-1.047.993-1.53.388-.367.867-.72 1.438-1.06.57-.348 1.163-.68 1.776-1 .62-.32 1.202-.626 1.744-.919.55-.299.99-.588 1.322-.867l-2.749-2.642c-.275-.265-.409-.554-.402-.867.007-.32.145-.609.413-.867l1.1-1.06c.274-.266.57-.399.887-.399.317 0 .617.136.899.408l8.066 7.784c.268.258.402.544.402.857.007.306-.127.591-.402.857l-1.089 1.06c-.275.259-.574.388-.898.388-.325.007-.628-.122-.91-.388l-2.738-2.652a8.19 8.19 0 0 0-.898 1.285c-.31.524-.631 1.082-.962 1.673a24.568 24.568 0 0 1-1.026 1.724 7.634 7.634 0 0 1-1.11 1.388c-.493.483-1.018.802-1.575.959-.55.156-1.103.15-1.66-.02zm-.17-2.356c.233.224.514.336.846.336.331 0 .61-.112.835-.336.225-.218.338-.483.338-.796 0-.32-.113-.592-.338-.816a1.156 1.156 0 0 0-.835-.326c-.332 0-.613.108-.846.326a1.109 1.109 0 0 0-.338.816c0 .313.112.578.338.796zm17.867-9.11l-4.039 3.887-8.711-8.385a9.7 9.7 0 0 0 .75-1.47 16.86 16.86 0 0 0 .603-1.785c.19-.68.395-1.486.613-2.417.113-.476.32-.823.624-1.04.303-.218.638-.31 1.004-.276.367.027.702.19 1.005.49l4.863 4.692c-.043.653-.145 1.22-.307 1.704a4.576 4.576 0 0 1-.666 1.315c-.289.395-.645.8-1.068 1.214-.07.062-.105.13-.105.204a.313.313 0 0 0 .073.184c.156.15.43.18.825.092a6.563 6.563 0 0 0 1.322-.5 9.04 9.04 0 0 0 1.395-.857c.437-.326.768-.656.994-.99l.803.786c.5.483.75 1.01.75 1.581.008.565-.235 1.088-.729 1.571zM4.992 8.577a.265.265 0 0 1-.19.074.265.265 0 0 1-.19-.075.316.316 0 0 1-.098-.19c-.06-.437-.125-.816-.194-1.135a4.244 4.244 0 0 0-.248-.81 1.75 1.75 0 0 0-.372-.559 1.706 1.706 0 0 0-.553-.367 4.118 4.118 0 0 0-.802-.238 15.75 15.75 0 0 0-1.115-.186.318.318 0 0 1-.201-.09.285.285 0 0 1-.075-.198c0-.077.025-.141.075-.194a.327.327 0 0 1 .201-.1 12.5 12.5 0 0 0 1.297-.197c.353-.079.642-.187.869-.324a1.6 1.6 0 0 0 .553-.55c.14-.232.252-.529.336-.89.084-.361.16-.806.23-1.333a.316.316 0 0 1 .098-.19.274.274 0 0 1 .19-.071c.073 0 .137.024.19.071.052.048.085.11.098.19.068.527.145.972.23 1.333.083.361.194.658.331.89.14.23.323.413.55.55.229.137.52.245.873.324.353.077.786.143 1.3.198.079.01.145.043.197.099a.264.264 0 0 1 .08.194.277.277 0 0 1-.08.197.314.314 0 0 1-.197.091c-.514.058-.947.127-1.3.206a2.898 2.898 0 0 0-.874.32c-.226.138-.41.322-.549.554-.137.23-.248.525-.332.886-.084.359-.16.802-.229 1.33a.316.316 0 0 1-.099.19z" fill-rule="evenodd" opacity=".2"/></svg>