<svg xmlns="http://www.w3.org/2000/svg" viewBox="0 0 19 18"><path d="M.45 4.639a.81.81 0 0 1 .116-.413.926.926 0 0 1 .3-.3.76.76 0 0 1 .393-.11l2.538-.003-.003-2.532c0-.138.038-.268.114-.39A.945.945 0 0 1 4.21.588a.75.75 0 0 1 .406-.116.735.735 0 0 1 .41.113c.126.08.227.18.302.303a.73.73 0 0 1 .117.393l.003 2.532 2.526.003c.142 0 .275.038.397.114a.834.834 0 0 1 .296.296.766.766 0 0 1 .11.413.766.766 0 0 1-.107.41.851.851 0 0 1-.3.298.739.739 0 0 1-.396.114l-2.526.003-.006 2.529a.74.74 0 0 1-.117.4.851.851 0 0 1-.3.3.766.766 0 0 1-.409.106.782.782 0 0 1-.41-.113.869.869 0 0 1-.298-.293.723.723 0 0 1-.11-.4V5.464H1.261a.73.73 0 0 1-.394-.117.851.851 0 0 1-.299-.299.777.777 0 0 1-.12-.41zm17.183 4.176c-.54 0-.81-.275-.81-.824v-1.59c0-.335-.084-.583-.254-.743-.17-.165-.414-.248-.73-.248h-1.625c-.545 0-.817-.272-.817-.816 0-.54.272-.81.817-.81h1.764c.807 0 1.42.21 1.837.627.423.418.634 1.026.634 1.823v1.757c0 .55-.272.824-.816.824zM6.348 17.528c-.807 0-1.422-.209-1.845-.627-.418-.418-.627-1.025-.627-1.822v-1.764c0-.545.27-.817.81-.817.539 0 .809.272.809.817v1.596c0 .335.082.583.247.744.17.165.416.248.737.248h1.625c.55 0 .824.272.824.816 0 .54-.274.81-.824.81H6.348zm7.866 0c-.545 0-.817-.27-.817-.809 0-.544.272-.816.817-.816h1.625c.316 0 .56-.083.73-.248.17-.16.255-.409.255-.744v-1.596c0-.545.27-.817.809-.817.544 0 .817.272.817.817v1.764c0 .797-.212 1.404-.635 1.822-.418.418-1.03.627-1.837.627h-1.764z"/><path clip-rule="evenodd" d="M11.161 12.628a1.912 1.912 0 1 0 0-3.824 1.912 1.912 0 0 0 0 3.824zm0 1.434a3.346 3.346 0 1 0 0-6.692 3.346 3.346 0 0 0 0 6.692z" fill-rule="evenodd"/></svg>