<svg xmlns="http://www.w3.org/2000/svg" viewBox="0 0 19 19"><path d="M5.814 6.768c0-.152.052-.281.156-.389a.506.506 0 0 1 .377-.161h6.306c.147 0 .272.054.377.161a.538.538 0 0 1 .156.389.538.538 0 0 1-.156.389.518.518 0 0 1-.377.154H6.347a.518.518 0 0 1-.377-.154.538.538 0 0 1-.156-.39zm0 2.706a.53.53 0 0 1 .156-.381.506.506 0 0 1 .377-.161h6.306c.147 0 .272.053.377.16a.53.53 0 0 1 .156.382.547.547 0 0 1-.156.396.518.518 0 0 1-.377.154H6.347a.518.518 0 0 1-.377-.154.547.547 0 0 1-.156-.396zm0 2.721c0-.151.052-.28.156-.388a.506.506 0 0 1 .377-.162h4.138c.147 0 .272.054.376.162a.538.538 0 0 1 .157.388.555.555 0 0 1-.157.39.506.506 0 0 1-.377.16H6.348a.506.506 0 0 1-.377-.16.555.555 0 0 1-.156-.39zm-2.63-6.634c-.526 0-.79-.276-.79-.829V2.964c0-.801.204-1.413.612-1.833C3.418.71 4.018.5 4.805.5h1.713c.535 0 .803.271.803.814 0 .548-.268.822-.803.822H4.933c-.313 0-.553.083-.718.249-.162.161-.242.41-.242.748v1.6c0 .552-.263.828-.79.828zm12.625 0c-.526 0-.789-.276-.789-.829V3.133c0-.337-.083-.587-.249-.748-.166-.166-.403-.25-.71-.25h-1.586c-.53 0-.796-.273-.796-.82 0-.544.265-.815.796-.815h1.72c.787 0 1.384.21 1.792.63.412.421.618 1.033.618 1.834v1.768c0 .553-.265.829-.796.829zM4.805 18.5c-.787 0-1.387-.21-1.799-.63-.407-.421-.611-1.033-.611-1.834V14.26c0-.548.263-.822.789-.822s.789.274.789.822v1.606c0 .337.08.587.242.748.165.166.405.25.718.25h1.585c.535 0 .803.273.803.82 0 .544-.268.815-.803.815H4.805zm7.67 0c-.53 0-.796-.271-.796-.814 0-.548.265-.822.796-.822h1.585c.308 0 .545-.083.711-.249.166-.161.249-.41.249-.748V14.26c0-.548.263-.822.79-.822.53 0 .795.274.795.822v1.775c0 .801-.206 1.413-.618 1.833-.408.42-1.005.631-1.792.631h-1.72z"/></svg>