<svg xmlns="http://www.w3.org/2000/svg" viewBox="0 0 19 19"><path d="M9.39 6.809c.405-.407 1-.61 1.526-.381.075.032.148.067.217.103.312.162.575.352.789.57.656.652 1.094 1.373 1.312 2.165a4.35 4.35 0 0 1 0 2.367c-.218.786-.653 1.505-1.304 2.156l-2.75 2.75c-.646.646-1.362 1.078-2.149 1.297a4.35 4.35 0 0 1-2.367 0c-.786-.214-1.508-.651-2.164-1.313-.656-.65-1.094-1.372-1.312-2.164a4.351 4.351 0 0 1 0-2.367c.218-.786.653-1.505 1.304-2.156l1.443-1.433c.212-.21.657.012.69.308.072.632-.03 1.311-.48 1.76l-.45.45c-.432.433-.721.907-.867 1.423a2.866 2.866 0 0 0 .008 1.554c.146.521.435.998.867 1.43.427.432.901.719 1.422.86.52.14 1.04.138 1.555-.008.515-.14.99-.425 1.422-.852l2.625-2.625c.432-.427.718-.898.859-1.414.14-.52.138-1.042-.008-1.562-.14-.521-.427-.998-.86-1.43a2.706 2.706 0 0 0-.835-.547 3.088 3.088 0 0 0-.243-.096c-.35-.121-.51-.582-.25-.845zm.243 5.39c-.406.408-1 .62-1.53.396a3.193 3.193 0 0 1-.22-.103 3.242 3.242 0 0 1-.781-.578c-.657-.656-1.094-1.377-1.313-2.164a4.351 4.351 0 0 1 0-2.367c.219-.787.654-1.505 1.305-2.156l2.742-2.743c.651-.65 1.37-1.086 2.156-1.304a4.323 4.323 0 0 1 2.36 0c.791.213 1.518.65 2.18 1.312.65.656 1.085 1.38 1.304 2.172a4.324 4.324 0 0 1 0 2.36c-.219.786-.651 1.502-1.297 2.148l-1.456 1.446c-.21.208-.651-.012-.684-.306-.072-.636.031-1.32.484-1.773l.445-.445c.432-.427.719-.899.86-1.414.14-.521.138-1.04-.008-1.555-.14-.52-.427-.997-.86-1.43-.432-.432-.906-.718-1.421-.86a2.817 2.817 0 0 0-1.555 0c-.516.142-.99.425-1.422.853L8.297 6.312c-.432.433-.721.907-.867 1.422a2.867 2.867 0 0 0 .008 1.555c.145.516.434.992.867 1.43a2.82 2.82 0 0 0 1.077.646c.348.116.51.573.25.834z"/></svg>