<svg xmlns="http://www.w3.org/2000/svg" viewBox="0 0 18 18"><g fill="none"><path d="M11.336 16.63c.476-.462.469-1.187 0-1.656l-1.29-1.289C4.694 8.34 3.544 6.895 3.83 6.603c.27-.286 1.267.674 3.786 2.82 2.373 2.014 5.237 4.585 7.141 2.695 1.765-1.758-.527-4.387-2.27-6.226a56.545 56.545 0 0 1-1.084-1.164l.007.007c1.194.696 3.054 1.7 4.27.483.93-.93.506-2.336-1.12-3.962-.506-.513-1.23-.55-1.707-.066a1.16 1.16 0 0 0-.132 1.494c-2.036-1.216-3.15-1.406-3.962-.578-1.004 1.01-.542 2.673 2.036 5.42 1.523 1.626 2.446 2.776 2.285 2.937-.154.153-1.59-.762-3.948-2.806C5.235 4.288 3.572 3.55 2.173 4.955.401 6.735 1.493 8.427 8.4 15.333l1.289 1.29c.461.46 1.18.453 1.648.007z" fill="#FDA9B0"/><path d="M11.336 16.63c.476-.462.469-1.187 0-1.656l-1.29-1.289C4.694 8.34 3.544 6.895 3.83 6.603c.27-.286 1.267.674 3.786 2.82 2.373 2.014 5.237 4.585 7.141 2.695 1.765-1.758-.527-4.387-2.27-6.226a56.545 56.545 0 0 1-1.084-1.164l.007.007c1.194.696 3.054 1.7 4.27.483.93-.93.506-2.336-1.12-3.962-.506-.513-1.23-.55-1.707-.066a1.16 1.16 0 0 0-.132 1.494c-2.036-1.216-3.15-1.406-3.962-.578-1.004 1.01-.542 2.673 2.036 5.42 1.523 1.626 2.446 2.776 2.285 2.937-.154.153-1.59-.762-3.948-2.806C5.235 4.288 3.572 3.55 2.173 4.955.401 6.735 1.493 8.427 8.4 15.333l1.289 1.29c.461.46 1.18.453 1.648.007z" fill="#F5848E"/></g></svg>