<svg xmlns="http://www.w3.org/2000/svg" viewBox="0 0 14 14"><g clip-path="url(#clip0_2298_14834)"><path d="M0 6C0 3.172 0 1.757.879.879 1.757 0 3.172 0 6 0h2c2.828 0 4.243 0 5.121.879C14 1.757 14 3.172 14 6v2c0 2.828 0 4.243-.879 5.121C12.243 14 10.828 14 8 14H6c-2.828 0-4.243 0-5.121-.879C0 12.243 0 10.828 0 8V6z" fill="#FAFBFF" fill-opacity=".1"/><path d="M0 6C0 3.172 0 1.757.879.879 1.757 0 3.172 0 6 0h2c2.828 0 4.243 0 5.121.879C14 1.757 14 3.172 14 6v2c0 2.828 0 4.243-.879 5.121C12.243 14 10.828 14 8 14H6c-2.828 0-4.243 0-5.121-.879C0 12.243 0 10.828 0 8V6z" fill="#fff"/></g></svg>