<svg xmlns="http://www.w3.org/2000/svg" viewBox="0 0 14 14"><path d="M3.636 13.67h6.722c.533 0 .946-.144 1.238-.432.296-.284.444-.694.444-1.232V7.811h.108a.936.936 0 0 0 .635-.35c.152-.198.228-.448.228-.749V5.164c0-.343-.095-.616-.285-.82-.19-.207-.457-.31-.8-.31h-1.594c.2-.165.354-.366.464-.603.11-.237.165-.5.165-.787 0-.381-.091-.718-.273-1.01a1.822 1.822 0 0 0-.73-.679A2.15 2.15 0 0 0 8.917.708c-.453 0-.85.122-1.193.368-.339.24-.582.58-.73 1.015-.153-.436-.398-.774-.737-1.015A1.969 1.969 0 0 0 5.07.708c-.389 0-.738.082-1.047.247-.305.16-.548.387-.73.68a1.902 1.902 0 0 0-.267 1.009c0 .287.055.55.165.787.115.237.271.438.47.603H2.068c-.334 0-.599.103-.794.31-.194.204-.292.477-.292.82v1.548c0 .3.074.55.223.75a.936.936 0 0 0 .634.349h.108v4.195c0 .538.146.948.438 1.232.292.288.71.431 1.25.431zm2.85-.73H3.629c-.287 0-.51-.079-.666-.235-.157-.157-.235-.38-.235-.667V7.842h3.758v5.098zm1.015 0V7.842h3.758v4.196c0 .288-.078.51-.235.667-.152.156-.374.235-.666.235H7.5zM6.486 7.1H2.239c-.165 0-.285-.04-.362-.121-.076-.08-.114-.201-.114-.362V5.26c0-.165.038-.288.114-.368.077-.08.197-.121.362-.121h4.247V7.1zm1.015 0V4.77h4.26c.156 0 .273.04.349.12.076.081.114.204.114.369v1.358c0 .161-.038.282-.114.362-.076.08-.193.12-.35.12H7.502zm-.97-3.066h-.877c-.529 0-.946-.13-1.25-.388a1.214 1.214 0 0 1-.457-.964c0-.335.108-.595.324-.781.22-.19.499-.286.837-.286.407 0 .745.148 1.016.445.27.292.406.69.406 1.193v.78zm.926 0v-.781c0-.504.135-.901.406-1.193.271-.297.61-.445 1.016-.445.338 0 .616.095.831.286.22.186.33.446.33.78 0 .386-.152.707-.456.965-.305.259-.722.388-1.251.388h-.876z" fill="#24B573"/></svg>