<svg xmlns="http://www.w3.org/2000/svg" viewBox="0 0 16 16"><path clip-rule="evenodd" d="M8 3.405a4.595 4.595 0 1 0 3.821 7.148.702.702 0 0 1 1.168.78A6 6 0 1 1 8 2a.702.702 0 1 1 0 1.405z" fill="#BF8700" fill-rule="evenodd"/><path d="M9.817 2.975a.702.702 0 0 1 .947-.3l.01.006a.702.702 0 0 1-.65 1.245l-.004-.002-.004-.002a.702.702 0 0 1-.3-.947zm3.165 3.097a.702.702 0 0 1-.953-.278l-.004-.008a.702.702 0 1 1 1.23-.677l.003.005.003.005a.702.702 0 0 1-.279.953zm.232 3.094a.702.702 0 0 1-.638-.761V8.4l.001-.004a.702.702 0 1 1 1.4.121l-.001.012a.702.702 0 0 1-.762.637z" fill="#BF8700"/></svg>