<svg xmlns="http://www.w3.org/2000/svg" viewBox="0 0 100 100"><g clip-path="url(#clip0_240_10536)"><path clip-rule="evenodd" d="M50 0C38.118-.012 26.62 4.315 17.567 12.206 8.514 20.098 2.497 31.038.594 43.066c-1.902 12.027.434 24.356 6.591 34.777 6.157 10.422 15.731 18.254 27.008 22.094 2.517.472 3.407-1.133 3.407-2.487v-8.719c-13.966 3.117-16.912-6.893-16.912-6.893-.927-3.102-2.895-5.767-5.556-7.523-4.512-3.147.369-3.147.369-3.147 1.581.229 3.091.824 4.415 1.74a10.694 10.694 0 0 1 3.227 3.548 10.888 10.888 0 0 0 2.694 3.275c1.1.899 2.362 1.566 3.714 1.964 1.351.398 2.766.518 4.164.353a10.496 10.496 0 0 0 3.977-1.311 11.015 11.015 0 0 1 3.07-6.862c-11.112-1.29-22.775-5.698-22.775-25.181-.077-5.09 1.759-10.015 5.126-13.755a19.14 19.14 0 0 1 .49-13.567s4.206-1.385 13.751 5.257a46.167 46.167 0 0 1 25.046 0c9.546-6.642 13.72-5.257 13.72-5.257 1.841 4.254 2.06 9.06.614 13.472 3.367 3.74 5.203 8.666 5.126 13.755 0 19.705-11.694 24.017-22.836 25.181a12.161 12.161 0 0 1 2.705 4.342c.588 1.629.827 3.369.702 5.101v14.07c0 1.668.89 2.959 3.438 2.455 11.148-3.94 20.579-11.796 26.627-22.177 6.048-10.38 8.324-22.62 6.425-34.554-1.899-11.935-7.85-22.797-16.801-30.669C73.168 4.477 61.792.103 50 0z" fill="#fff" fill-rule="evenodd"/></g></svg>