<svg xmlns="http://www.w3.org/2000/svg" viewBox="0 0 18 18"><path clip-rule="evenodd" d="M1 9c.097 3.596.146 5.394 1.231 6.559.068.072.138.142.21.21C3.606 16.854 5.404 16.903 9 17c3.596-.097 5.394-.146 6.559-1.231.072-.068.142-.138.21-.21C16.854 14.394 16.903 12.596 17 9c-.097-3.596-.146-5.394-1.231-6.559a4.23 4.23 0 0 0-.21-.21C14.394 1.146 12.596 1.097 9 1c-3.596.097-5.394.146-6.559 1.231a4.218 4.218 0 0 0-.21.21C1.146 3.606 1.097 5.404 1 9zm8-6.736c-1.812.049-3.058.085-4 .23-.915.14-1.374.36-1.698.661-.05.048-.1.097-.147.147-.301.324-.521.783-.661 1.698-.145.942-.181 2.188-.23 4 .049 1.812.085 3.058.23 4 .14.915.36 1.374.661 1.698.048.05.097.1.147.147.324.301.783.521 1.698.661.942.145 2.188.181 4 .23 1.812-.049 3.058-.085 4-.23.915-.14 1.374-.36 1.698-.661.05-.048.1-.097.147-.147.301-.324.521-.783.661-1.698.145-.942.181-2.188.23-4-.049-1.812-.085-3.058-.23-4-.14-.915-.36-1.374-.661-1.698-.048-.05-.097-.1-.147-.147-.324-.301-.783-.521-1.698-.661-.942-.145-2.188-.181-4-.23z" fill-rule="evenodd"/><path d="M5.489 7.545a.62.62 0 0 1-.642-.633c0-.174.062-.32.186-.439a.62.62 0 0 1 .456-.185h3.705v1.257H5.49zm4.769 1.097c-.479 0-.887-.17-1.224-.507a1.666 1.666 0 0 1-.507-1.223c0-.478.17-.883.507-1.215a1.668 1.668 0 0 1 1.224-.506c.472 0 .878.169 1.215.506.338.332.507.737.507 1.215 0 .478-.17.886-.507 1.223a1.658 1.658 0 0 1-1.215.507zm0-.996a.7.7 0 0 0 .515-.21.729.729 0 0 0 .21-.524c0-.208-.07-.38-.21-.514a.7.7 0 0 0-.515-.211.71.71 0 0 0-.524.21.697.697 0 0 0-.202.515c0 .203.067.377.202.523.141.14.316.211.524.211zm.987-.101V6.288h1.317c.158 0 .298.062.422.185a.582.582 0 0 1 .186.44.62.62 0 0 1-.608.632h-1.317zm-5.79 4.218a.591.591 0 0 1-.43-.186.635.635 0 0 1-.178-.455c0-.17.06-.313.177-.43a.591.591 0 0 1 .43-.186h1.318v1.257H5.455zm2.304 1.097c-.473 0-.88-.17-1.224-.507a1.694 1.694 0 0 1-.506-1.231c0-.473.169-.878.506-1.215A1.686 1.686 0 0 1 7.76 9.4c.478 0 .886.168 1.224.506.343.337.515.742.515 1.215 0 .478-.172.888-.515 1.231a1.668 1.668 0 0 1-1.224.507zm0-1.004a.71.71 0 0 0 .523-.211.71.71 0 0 0 .212-.523c0-.208-.07-.38-.212-.515a.71.71 0 0 0-.523-.21.7.7 0 0 0-.515.21.682.682 0 0 0-.21.515c0 .208.07.382.21.523a.7.7 0 0 0 .515.21zm1.055-.093v-1.257h3.714a.61.61 0 0 1 .448.185.56.56 0 0 1 .194.43c0 .18-.065.332-.194.456a.61.61 0 0 1-.448.186H8.814z"/></svg>