<svg xmlns="http://www.w3.org/2000/svg" viewBox="0 0 16 16"><path d="M3.61 15c-.79 0-1.39-.204-1.801-.611-.411-.407-.616-1.013-.616-1.817V3.87H2.48v8.767c0 .364.096.644.288.84.192.195.467.293.825.293h8.812c.352 0 .624-.098.817-.294.197-.195.296-.475.296-.839V3.87h1.288v8.702c0 .799-.205 1.401-.616 1.809-.41.413-1.011.619-1.8.619H3.61zM1.52 4.481c-.49 0-.866-.146-1.128-.44C.131 3.748 0 3.354 0 2.86V1.62C0 1.121.136.728.408.44.68.147 1.051 0 1.521 0h12.958c.491 0 .867.147 1.129.44.261.288.392.682.392 1.181V2.86c0 .494-.13.888-.392 1.181-.262.294-.638.44-1.129.44H1.521zm.329-1.23h12.31c.203 0 .344-.046.424-.139.086-.092.128-.239.128-.44V1.81c0-.207-.042-.353-.128-.44-.08-.093-.221-.139-.424-.139H1.85c-.203 0-.347.046-.432.139-.086.087-.128.233-.128.44v.863c0 .201.042.348.128.44.085.093.23.139.432.139z"/><path d="M8.438 11.837a.503.503 0 0 0 .188-.393v-2.67L8.57 7.572l.696.646.72.667c.055.054.12.096.196.126a.766.766 0 0 0 .238.037c.163 0 .3-.047.41-.14A.448.448 0 0 0 11 8.543a.427.427 0 0 0-.057-.223.56.56 0 0 0-.156-.178l-2.333-1.95a.91.91 0 0 0-.229-.148.588.588 0 0 0-.45 0c-.071.03-.15.079-.237.148l-2.333 1.95a.561.561 0 0 0-.156.178.484.484 0 0 0-.049.223c0 .148.055.27.164.363.109.094.248.141.417.141a.74.74 0 0 0 .23-.037.655.655 0 0 0 .204-.126l.712-.667.696-.646-.05 1.202v2.67c0 .153.064.284.19.393.125.109.27.163.433.163.17 0 .316-.054.442-.163z"/></svg>