<svg xmlns="http://www.w3.org/2000/svg" viewBox="0 0 20 20"><path d="M4.5 16.35c.539.576 1.118.874 1.737.895.62.022 1.21-.233 1.772-.765.197-.182.394-.418.59-.707.2-.286.397-.588.59-.907.196-.32.384-.62.563-.902.179-.28.348-.511.507-.69l1.295 1.375c.257.277.54.42.847.428.307.013.595-.108.863-.36l.869-.823c.268-.262.404-.542.408-.841.008-.304-.12-.593-.386-.87L9.204 6.935c-.262-.276-.546-.419-.854-.427-.303-.013-.59.11-.863.367l-.862.816c-.272.257-.413.54-.421.847-.004.303.124.593.386.87l1.302 1.37a5.8 5.8 0 0 1-.725.46c-.29.163-.599.334-.924.513-.326.175-.638.354-.938.538-.296.184-.54.368-.734.55-.562.532-.85 1.107-.862 1.727-.013.62.25 1.214.79 1.785zm3.137-7.932l.513-.473c.075-.07.15-.105.227-.103.077-.002.149.034.215.109l4.522 4.774c.141.153.135.305-.019.454l-.5.473c-.154.159-.306.157-.456-.006l-1.494-1.586a.547.547 0 0 0-.437-.192c-.163.004-.32.076-.474.217-.127.121-.28.324-.46.61-.174.281-.369.603-.584.964-.215.358-.445.712-.69 1.065-.24.352-.493.65-.756.895-.303.287-.623.423-.96.41-.333-.01-.647-.168-.942-.475-.29-.312-.433-.636-.428-.974.01-.337.165-.647.468-.93.259-.244.571-.48.936-.704.366-.225.733-.435 1.101-.63a98.25 98.25 0 0 0 1.003-.53c.295-.158.506-.3.633-.425a.771.771 0 0 0 .244-.46.53.53 0 0 0-.167-.441L7.624 8.873c-.15-.158-.145-.31.013-.455zM6.282 15.42c.209.005.39-.064.544-.21a.734.734 0 0 0 .24-.532.734.734 0 0 0-.21-.544.734.734 0 0 0-.532-.24.734.734 0 0 0-.544.21.734.734 0 0 0-.24.532c-.005.21.064.39.21.544a.734.734 0 0 0 .532.24zm7.679-2.48l3.18-3.008c.382-.36.575-.753.578-1.176.007-.423-.174-.832-.543-1.227L12.28 2.347a1.325 1.325 0 0 0-.605-.37 1.24 1.24 0 0 0-1.259.318 1.387 1.387 0 0 0-.365.663L9.7 4.295c-.096.356-.186.662-.27.916-.08.25-.167.476-.262.678-.095.199-.212.4-.35.606-.134.202-.305.44-.514.717l.822.869a8.94 8.94 0 0 0 .74-1.018c.188-.307.344-.619.469-.936.124-.317.245-.675.363-1.073.118-.399.261-.878.43-1.437a.399.399 0 0 1 .122-.208.246.246 0 0 1 .181-.06.31.31 0 0 1 .196.109l4.628 4.885c.128.136.19.277.187.422a.551.551 0 0 1-.19.392l-3.102 2.934.81.85zm-.928-3.77c.083.088.245.101.487.04a4.16 4.16 0 0 0 .83-.323c.311-.158.611-.338.899-.54a3.68 3.68 0 0 0 .684-.609l-1.37-1.442a3.435 3.435 0 0 1-.536 1.479c-.276.42-.599.804-.968 1.153-.092.087-.1.168-.026.242zm-7.15-2.545a.172.172 0 0 0 .123-.049.206.206 0 0 0 .064-.123 8.83 8.83 0 0 1 .15-.863c.054-.235.126-.427.215-.576.09-.15.21-.27.357-.36.149-.089.338-.158.567-.208.23-.051.51-.096.844-.133a.204.204 0 0 0 .129-.06.18.18 0 0 0 .051-.128.171.171 0 0 0-.051-.126.21.21 0 0 0-.129-.064 8.256 8.256 0 0 1-.844-.129 1.928 1.928 0 0 1-.567-.21 1.047 1.047 0 0 1-.357-.357 2.065 2.065 0 0 1-.216-.579 8.991 8.991 0 0 1-.149-.865.206.206 0 0 0-.064-.124.178.178 0 0 0-.123-.046.178.178 0 0 0-.123.046.206.206 0 0 0-.064.124 8.991 8.991 0 0 1-.15.865 2.011 2.011 0 0 1-.217.579 1.04 1.04 0 0 1-.36.357c-.147.089-.335.159-.564.21-.228.05-.509.093-.842.129a.212.212 0 0 0-.131.064.176.176 0 0 0-.049.126c0 .05.016.093.049.128a.207.207 0 0 0 .13.06c.28.037.52.078.725.12.203.041.377.093.52.154a1.108 1.108 0 0 1 .601.602c.064.144.117.32.162.526.044.208.086.454.126.738.008.051.03.092.064.123a.172.172 0 0 0 .123.049z" fill="#fff"/></svg>