<svg xmlns="http://www.w3.org/2000/svg" viewBox="0 0 10 14"><path d="M1.648 2.266l-.012 9.56 2.124-1.724 1.701-.946 2.723-.2-6.536-6.69z" fill-opacity=".5"/><path d="M1.171.916l.477-.453A.657.657 0 0 0 .514.916h.657zm0 12.168H.514a.657.657 0 0 0 1.122.465l-.465-.465zm7.973-3.776v.657a.657.657 0 0 0 .476-1.11l-.476.453zM.514.916v12.168h1.314V.916H.514zm1.122 12.633l2.891-3.235-.623-1.459L.707 12.62l.929.929zm2.891-3.235l4.617-.35V8.652l-5.24.204.623 1.459zM9.62 8.855L1.648.463l-.953.905L8.667 9.76l.953-.905z"/></svg>