<svg xmlns="http://www.w3.org/2000/svg" viewBox="0 0 16 16"><path clip-rule="evenodd" d="M2.766 6.696h4.928a.578.578 0 0 1 .114-.577l1.198-1.34a.578.578 0 0 0-.47-.963l-1.793.122a.578.578 0 0 1-.54-.286L5.3 2.098a.578.578 0 0 0-1.06.15L3.8 3.992a.578.578 0 0 1-.438.424l-1.757.38A.578.578 0 0 0 1.42 5.85l1.346.845zm6.466-4.544a.826.826 0 1 0 0-1.652.826.826 0 0 0 0 1.652zm1.805 3.9a.413.413 0 0 1-.62-.352l-.027-2.737a.413.413 0 0 1 .617-.363L13.4 3.96a.413.413 0 0 1 .003.716l-2.366 1.376zM2.211 8.349c0-.456.37-.826.826-.826h9.913c.456 0 .826.37.826.826v4.13a3.304 3.304 0 0 1-3.304 3.305H5.515a3.304 3.304 0 0 1-3.304-3.305v-4.13zM5.6 9.587c0-.456.37-.826.827-.826h3.304a.826.826 0 0 1 0 1.652H6.428a.826.826 0 0 1-.826-.826z" fill-rule="evenodd"/></svg>