<svg xmlns="http://www.w3.org/2000/svg" viewBox="0 0 100 100"><g clip-path="url(#clip0_240_10498)"><path clip-rule="evenodd" d="M85.409 85.207C94.37 76.171 99.906 63.732 99.906 50c0-27.614-22.386-50-50-50-13.732 0-26.171 5.536-35.207 14.497l70.71 70.71zm-6.36 5.426a49.977 49.977 0 0 1-7.386 4.398L4.875 28.243a49.969 49.969 0 0 1 4.398-7.386l69.776 69.776zm-26.078 9.275a49.895 49.895 0 0 0 10.12-1.665L1.662 36.815a49.89 49.89 0 0 0-1.664 10.12l52.973 52.973zm-12.6-.816C20.402 95.236 4.668 79.502.813 59.536L40.37 99.091z" fill="#5D69E5" fill-rule="evenodd"/></g></svg>