<svg xmlns="http://www.w3.org/2000/svg" viewBox="0 0 15 13"><path d="M14.727 4.276c.086-.42.02-.862-.201-1.229a1.697 1.697 0 0 0-1.471-.82h-.008a1.709 1.709 0 0 0-1.667 1.376 4.066 4.066 0 0 1-.543 1.335.157.157 0 0 1-.272-.016L8.86 1.402A1.762 1.762 0 0 0 7.775.469a1.718 1.718 0 0 0-2.02.897L4.006 5.012c-.045.096-.185.094-.225-.003v-.002a1.704 1.704 0 0 0-1.588-1.05c-.226 0-.448.044-.659.131-.873.363-1.264 1.38-.897 2.243.332.78.879 1.515 1.586 2.149a.15.15 0 0 1 .036.178l-.564 1.18c-.399.833-.075 1.848.759 2.261a1.72 1.72 0 0 0 2.312-.785l.487-1.017a.154.154 0 0 1 .18-.08 6.9 6.9 0 0 0 1.787.24 7.092 7.092 0 0 0 1.955-.285.155.155 0 0 1 .184.08l.487 1.005c.289.596.889 1.003 1.558 1.006.272 0 .535-.06.78-.183.834-.418 1.15-1.438.747-2.27l-.612-1.264a.152.152 0 0 1 .035-.177c1.18-1.082 2.046-2.508 2.373-4.09l-.001-.003zM4.204 11.05a1.09 1.09 0 0 1-1.464.503c-.538-.261-.742-.92-.485-1.456l.469-.979a.156.156 0 0 1 .23-.06 8.045 8.045 0 0 0 1.608.867.153.153 0 0 1 .082.206l-.44.918zM7.22 9.843c-2.501.005-5.15-1.663-6.03-3.797a1.068 1.068 0 0 1 .597-1.398 1.088 1.088 0 0 1 1.417.59c.55 1.335 2.387 2.462 4.01 2.458.25 0 .499-.024.745-.07a.158.158 0 0 1 .17.084l.824 1.7a.152.152 0 0 1-.098.214c-.531.14-1.08.216-1.635.218zm-.364-2.891l.375-.783a.085.085 0 0 1 .152 0l.37.762a.084.084 0 0 1-.063.119 3.137 3.137 0 0 1-.767.021.083.083 0 0 1-.066-.118l-.001-.001zm5.039 4.582a1.088 1.088 0 0 1-1.466-.497L7.45 4.89a.164.164 0 0 0-.295 0L6.241 6.8a.155.155 0 0 1-.19.08A4.45 4.45 0 0 1 4.39 5.875a.151.151 0 0 1-.03-.173l1.978-4.127a.887.887 0 0 1 .31-.365c.625-.406 1.357-.153 1.63.412l4.094 8.454c.259.534.058 1.193-.48 1.458h.002zm-.869-5.661a.15.15 0 0 1 .018-.16 4.798 4.798 0 0 0 .95-2.01 1.085 1.085 0 0 1 1.327-.832c.58.142.914.732.792 1.308-.284 1.35-.994 2.576-1.963 3.537a.157.157 0 0 1-.252-.04l-.873-1.803h.001z" fill="#24B573"/></svg>