<svg xmlns="http://www.w3.org/2000/svg" viewBox="0 0 18 18"><path d="M5.27 9.347c-.1-.37-.2-.85-.41-1.55-.21-.7-.34-.86-.47-1.23-.13-.37-.3-.72-.5-1.18-.183-.47-.337-.95-.46-1.44a1.43 1.43 0 0 1 .28-1.17 1.41 1.41 0 0 1 1.36-.35c.379.166.699.44.92.79.295.472.536.975.72 1.5.282.72.486 1.467.61 2.23l.09.45v-1.16c0-1-.06-1.82 0-2.94 0-.13.06-.59.08-.72a1.19 1.19 0 0 1 .67-1c.445-.2.955-.2 1.4 0 .399.179.665.564.69 1 0 .11.09 1 .09 1.11V7.327a29 29 0 0 1 .34-3.94 1.49 1.49 0 0 1 .79-.93 1.37 1.37 0 0 1 1.4.24c.288.316.458.723.48 1.15V7.397c.09-.28.19-.54.27-.74.08-.2.24-.61.36-.86.122-.238.259-.469.41-.69a1.38 1.38 0 0 1 .67-.56 1 1 0 0 1 1.3.59c.06.364.06.736 0 1.1a9.342 9.342 0 0 1-.35 1.65c-.13.45-.27 1.23-.34 1.6-.07.37-.23 1.38-.36 1.82a5.913 5.913 0 0 1-.79 1.47 7.24 7.24 0 0 0-1.19 1.81 4.052 4.052 0 0 0-.1 1c-.002.31.039.635.12.935h-7.1s.19-.985-.23-1.345c-.42-.36-.83-.78-1.14-1.06l-.83-.92c-.28-.36-.63-1.09-1.24-2-.35-.5-1-1.09-1.28-1.58a1.75 1.75 0 0 1-.19-1.32 1.21 1.21 0 0 1 1.37-.86 2 2 0 0 1 1.24.54c.268.232.518.482.75.75.16.19.2.28.38.51.18.23.3.46.21.12" stroke-linecap="round" stroke-linejoin="round" stroke="#000" stroke-width="1.3"/></svg>