<svg xmlns="http://www.w3.org/2000/svg" viewBox="0 0 15 14"><path clip-rule="evenodd" d="M3.975 1.992c.48-.18 1.43-.07 1.68.47s.4 1.24.41 1.07a6.39 6.39 0 0 1 .13-1.54 1.11 1.11 0 0 1 .69-.69 1.93 1.93 0 0 1 .92-.06c.31.064.585.243.77.5.234.583.366 1.202.39 1.83a6.543 6.543 0 0 1 .27-1.58 1.24 1.24 0 0 1 .69-.48c.33-.06.669-.06 1 0a1.4 1.4 0 0 1 .68.49c.212.53.34 1.09.38 1.66 0 .14.07-.39.29-.74a1.002 1.002 0 1 1 1.9.64v2.26a11.633 11.633 0 0 1-.24 1.74 5.872 5.872 0 0 1-.72 1.43 7.222 7.222 0 0 0-1.19 1.81 4.12 4.12 0 0 0-.1 1c-.001.31.039.65.12.95h-1.23c-.39-.01-2.364 0-2.68 0h-3.14s.19-1-.23-1.36c-.42-.36-.83-.78-1.14-1.06l-.83-.92a4.45 4.45 0 0 1-1.24-2c-.21-.94-.19-1.39 0-1.77a1.5 1.5 0 0 1 .85-.65 1.8 1.8 0 0 1 .88.06c.196.082.366.217.49.39.23.31.31.46.21.12s-.32-.59-.43-1a4.582 4.582 0 0 1-.38-1.53c.02-.48.34-.897.8-1.04z" fill-rule="evenodd" stroke-linecap="round" stroke-linejoin="round" stroke="#000" stroke-width="1.3"/></svg>