<svg xmlns="http://www.w3.org/2000/svg" viewBox="0 0 16 16"><g clip-path="url(#clip0_521_16293)"><path clip-rule="evenodd" d="M2.998 2.847c.495.403.681.372 1.61.31l8.765-.526c.186 0 .032-.186-.03-.217l-1.456-1.052c-.279-.216-.65-.464-1.363-.402l-8.486.619c-.31.03-.372.185-.248.31l1.208.958zm.526 2.043v9.222c0 .495.248.68.806.65l9.632-.557c.558-.03.62-.372.62-.774V4.27c0-.402-.155-.619-.496-.588L4.02 4.27c-.372.03-.496.217-.496.619zm9.51.495c.061.278 0 .557-.28.588l-.464.093v6.808c-.403.217-.774.34-1.084.34-.496 0-.62-.154-.991-.618L7.179 7.83v4.61l.96.218s0 .556-.775.556l-2.136.124c-.062-.124 0-.433.217-.495l.557-.154V6.592l-.774-.062c-.062-.279.093-.68.527-.712l2.292-.154 3.159 4.827v-4.27l-.806-.093c-.061-.34.186-.588.496-.619l2.137-.124zM1.325.743l8.828-.65c1.084-.093 1.363-.03 2.044.464l2.818 1.98c.465.341.62.434.62.805v10.863c0 .68-.248 1.083-1.115 1.145l-10.252.619c-.65.031-.96-.062-1.301-.495L.892 12.78c-.372-.495-.527-.866-.527-1.3V1.826c0-.557.248-1.021.96-1.083z" fill-rule="evenodd"/></g></svg>