<svg xmlns="http://www.w3.org/2000/svg" viewBox="0 0 20 20"><path d="M6.667 5H17.5M6.667 10H17.5M6.667 15H17.5" stroke-linecap="round" stroke-linejoin="round" stroke="#1D124C" stroke-width="1.7"/><path d="M2.445 6.5h.828V3.682h-.828l-.707.472v.694l.668-.442h.04V6.5zm-.738 3.098h.754c0-.217.135-.381.371-.381.22 0 .336.142.336.304 0 .143-.043.256-.389.551l-1.023.877v.551h2.24v-.633H2.857v-.039l.53-.453c.431-.37.58-.586.58-.922 0-.492-.39-.85-1.094-.85-.695 0-1.166.399-1.166.995zm.814 5.73h.366c.238 0 .383.113.383.305 0 .182-.153.303-.381.303-.243 0-.393-.12-.397-.311h-.789c.026.578.498.953 1.2.953.712 0 1.208-.346 1.208-.857 0-.366-.232-.617-.652-.674v-.04c.316-.07.537-.292.537-.634 0-.428-.375-.77-1.066-.77-.7 0-1.15.362-1.155.93h.748c.008-.201.141-.324.37-.324.212 0 .341.117.341.285 0 .176-.13.295-.343.295h-.37v.54z" fill="#1D124C"/></svg>