<svg xmlns="http://www.w3.org/2000/svg" viewBox="0 0 100 100"><defs><linearGradient id="a" x1="99.016" y1="70.524" x2="67.51" y2="106.674" gradientUnits="userSpaceOnUse"><stop offset="0" stop-color="#35b8f1"/><stop offset=".75" stop-color="#0d64ad"/><stop offset="1" stop-color="#0d64ad"/></linearGradient><linearGradient id="k" x1="25.051" y1="39.867" x2="25.051" y2="70.373" gradientUnits="userSpaceOnUse"><stop offset="0" stop-color="#f2f2f2"/><stop offset="1" stop-color="#fff"/></linearGradient><linearGradient id="l" x1="25.051" y1="39.867" x2="25.051" y2="70.373" gradientUnits="userSpaceOnUse"><stop offset="0" stop-color="#f2f2f2"/><stop offset="1" stop-color="#fff"/></linearGradient><linearGradient id="b" x1="86.166" y1="59.325" x2="54.66" y2="95.475" gradientUnits="userSpaceOnUse"><stop offset="0" stop-color="#1f6fac"/><stop offset=".75" stop-color="#0b458a"/><stop offset="1" stop-color="#0b458a"/></linearGradient><linearGradient id="c" x1="82.955" y1="56.529" x2="51.449" y2="92.679" gradientUnits="userSpaceOnUse"><stop offset="0" stop-color="#1e6ba6"/><stop offset=".75" stop-color="#0b4385"/><stop offset="1" stop-color="#0b4385"/></linearGradient><linearGradient id="d" x1="89.221" y1="53.625" x2="72.285" y2="72.981" gradientUnits="userSpaceOnUse"><stop offset="0" stop-color="#1c649b"/><stop offset=".75" stop-color="#0a3e7d"/><stop offset="1" stop-color="#0a3e7d"/></linearGradient><linearGradient id="e" x1="82.283" y1="55.943" x2="50.778" y2="92.093" gradientUnits="userSpaceOnUse"><stop offset="0" stop-color="#1a5e91"/><stop offset=".75" stop-color="#093a75"/><stop offset="1" stop-color="#093a75"/></linearGradient><linearGradient id="f" x1="81.68" y1="55.414" x2="50.174" y2="91.565" gradientUnits="userSpaceOnUse"><stop offset="0" stop-color="#185788"/><stop offset=".75" stop-color="#09366d"/><stop offset="1" stop-color="#09366d"/></linearGradient><linearGradient id="g" x1="80.991" y1="54.815" x2="49.484" y2="90.965" gradientUnits="userSpaceOnUse"><stop offset="0" stop-color="#17527f"/><stop offset=".75" stop-color="#083366"/><stop offset="1" stop-color="#083366"/></linearGradient><linearGradient id="h" x1="80.514" y1="54.4" x2="49.008" y2="90.55" gradientUnits="userSpaceOnUse"><stop offset="0" stop-color="#13456b"/><stop offset=".75" stop-color="#072b56"/><stop offset="1" stop-color="#072b56"/></linearGradient><linearGradient id="i" x1="80.138" y1="54.071" x2="48.633" y2="90.221" gradientUnits="userSpaceOnUse"><stop offset="0" stop-color="#113e60"/><stop offset=".75" stop-color="#06274d"/><stop offset="1" stop-color="#06274d"/></linearGradient><linearGradient id="j" x1="82.627" y1="52.904" x2="68.535" y2="69.008" gradientUnits="userSpaceOnUse"><stop offset="0" stop-color="#0b283f"/><stop offset=".75" stop-color="#041932"/><stop offset="1" stop-color="#041932"/></linearGradient></defs><path d="M97.301 47.734c1.436 0 2.6 1.163 2.6 2.596a2.598 2.598 0 0 1-2.6 2.596 2.598 2.598 0 0 1-2.6-2.596 2.598 2.598 0 0 1 2.6-2.596zm-70.233-.927a3.125 3.125 0 0 1 3.129 3.124c0 1.723-1.4 3.123-3.129 3.123a3.127 3.127 0 0 1-3.129-3.123c0-1.726 1.4-3.124 3.13-3.124z" fill="#123B6D"/><path d="M62.448 49.928h-36.43v1.74L59.916 70.26l.455.238a4.787 4.787 0 0 0 4.153 0l.455-.238 33.899-18.593v-1.74h-36.43zm0 0h-36.43v-1.74l33.898-18.593.455-.238a4.787 4.787 0 0 1 4.153 0l.455.238 33.756 18.618v1.715H62.448z" fill="#123B6D"/><path d="M35.708 8h53.545a4.39 4.39 0 0 1 4.392 4.386v68.957a4.39 4.39 0 0 1-4.392 4.385H35.708a4.39 4.39 0 0 1-4.392-4.385V12.386A4.39 4.39 0 0 1 35.708 8z" fill="#28A8EA"/><path d="M31.316 52.932h24.877v18.735H31.316V52.932z" fill="#14447D"/><path d="M53.094 52.932h21.84v18.735h-21.84V52.932z" fill="#0364B8"/><path d="M31.316 34.888h21.77v18.044h-21.77V34.888z" fill="#0664B2"/><path d="M74.933 52.931h18.74v18.733h-18.74V52.931zM53.092 34.889h21.843v18.044H53.092V34.888zM31.316 16.869h21.77v18.019h-21.77V16.869z" fill="#0078D4"/><path d="M93.671 16.87h-18.74v18.018h18.74V16.869z" fill="#50D9FF"/><path d="M35.708 8h53.477c1.153 0 2.265.444 3.101 1.24a4.18 4.18 0 0 1 1.29 2.979v4.765h-62.26V12.22A4.316 4.316 0 0 1 35.708 8z" fill="#0358A7"/><path d="M60.014 70.302c.115.074.235.14.359.197l-.039-.022a3.2 3.2 0 0 1-.285-.156l-.035-.019zm39.983-20.36c0 .216-.038.429-.104.626-.156.46-.482.853-.923 1.097h-.09l-5.203 2.85-18.74 10.264-2.99 1.639-7.158 3.941c-.05.03-.099.058-.15.083l-.11.06c-.65.309-1.36.473-2.077.473a4.798 4.798 0 0 1-2.077-.476l37.62 20.64a4.562 4.562 0 0 0 2.005-3.72V49.941h-.003zm0-.017v0z" fill="url(#a)"/><path d="M97.749 49.928h-1.992l-2.113 1.16v1.843h.03v1.524l5.06-2.785-.985-1.742zm-.469-.834l-1.52.834h1.991l-.47-.834z" fill="#0E316A"/><path d="M93.647 51.088l-3.362 1.843h3.362v-1.843z" fill="#1967A8"/><path d="M74.935 61.357L63.14 67.829a1.65 1.65 0 0 1-.654.134 1.65 1.65 0 0 1-.655-.134c-.187-.076-3.104-1.663-7.16-3.884v3.408l5.25 2.88c.044.03.088.06.132.088l.285.156a4.763 4.763 0 0 0 2.115.492c.71 0 1.419-.158 2.076-.473.039-.016.074-.035.113-.054l.15-.083c.066-.038.13-.082.192-.125l6.967-3.816 2.99-1.647v-3.414" fill="#07458F"/><path d="M93.674 52.932h-3.392l-15.35 8.425v3.414l18.742-10.316v-1.523z" fill="#054F9D"/><path d="M64.635 70.442c-.036.019-.074.035-.112.054a4.763 4.763 0 0 1-2.077.473 4.81 4.81 0 0 1-2.115-.492l.038.022c.65.312 1.36.476 2.077.476.718 0 1.427-.164 2.077-.473l.112-.06zm-9.967-3.089l5.25 2.883.095.066.036.02c-.044-.028-.088-.058-.132-.088l-5.249-2.88zm17.277-.935l-6.967 3.816a4.524 4.524 0 0 1-.192.125l7.159-3.941z" fill="url(#b)"/><path d="M29.67 92h65.553c.987-.003 1.95-.3 2.767-.859L60.366 70.5a2.69 2.69 0 0 1-.455-.263L26.059 51.665l-1.05-.572v36.325a4.58 4.58 0 0 0 4.584 4.576l.077.006z" fill="#28A8EA"/><path d="M53.688 25.877h-.6v1.866c.175.375.28.79.29 1.23v5.912h1.29v-6.841a2.927 2.927 0 0 0-.98-2.167z" fill="#27A2E2"/><path d="M54.665 52.932h-1.29v10.307c.441.24.871.476 1.29.706V52.932z" fill="#0361B2"/><path d="M54.67 34.888h-1.29v18.043h1.29V34.888zm-1.581-9.01h-3.337c.01.03.022.062.03.095h.518c1.23 0 2.299.722 2.789 1.77v-1.866z" fill="#0074CD"/><path d="M53.375 63.239v3.408l1.29.709v-3.409c-.419-.232-.849-.467-1.29-.708z" fill="#07438A"/><path d="M53.375 66.647v.003l1.29.706v-.003l-1.29-.706z" fill="url(#c)"/><path d="M53.377 66.65v6.139c0 .027-.003.054-.003.082v.68c-.028.302-.09.589-.187.865a3.077 3.077 0 0 0 1.48-2.577v-4.478l-1.29-.71z" fill="#27A2E2"/><path d="M24.994 73.976v7.2h.022V79.72h-.022v-5.744z" fill="#EEE"/><path d="M49.955 77.43c-.15.072-.307.13-.471.176a4.036 4.036 0 0 1-3.554 2.12c-.04 0-.082 0-.123-.003H25.01v1.455h20.797l.123.003a4.031 4.031 0 0 0 4.025-3.75z" fill="#259DDA"/><path d="M53.088 27.743v1.242c.176.375.277.79.288 1.23v4.673h.003v-5.911a3.037 3.037 0 0 0-.291-1.234z" fill="#2498D3"/><path d="M53.376 52.932h-.003v10.304l.003.003V52.932z" fill="#035AA6"/><path d="M53.377 34.888h-.003v18.044h.003V34.888zm-3.08-8.915h-.518c.074.233.118.47.137.714v.525h.384a3.08 3.08 0 0 1 2.789 1.773v-1.242a3.09 3.09 0 0 0-2.792-1.77z" fill="#006CC0"/><path d="M53.373 63.236v3.409l.003.002V63.24l-.003-.003z" fill="#063E81"/><path d="M53.373 66.645v.003l.003.003v-.003l-.003-.003z" fill="url(#d)"/><path d="M53.373 66.647v6.22a.804.804 0 0 0 .003-.081v-6.139h-.003z" fill="#2498D3"/><path d="M53.19 74.413c-.16.099-.33.181-.507.25a3.12 3.12 0 0 1-1.074.837 3.086 3.086 0 0 1-.672 1.203 3.726 3.726 0 0 0 2.253-2.29z" fill="#259DDA"/><path d="M53.376 72.868a3.077 3.077 0 0 1-.69 1.792c.178-.069.345-.15.506-.25.094-.273.157-.563.187-.864v-.678" fill="#2498D3"/><path d="M52.683 74.66c-.295.112-.616.18-.948.197-.005.002-.008.008-.013.01a3.186 3.186 0 0 1-.113.63 3.059 3.059 0 0 0 1.074-.837z" fill="#2392CC"/><path d="M53.085 28.985v5.903h-.235.235v18.044h-.235.526-.285V34.888h.285v-4.672a3.124 3.124 0 0 0-.29-1.231z" fill="#228EC5"/><path d="M53.092 52.932h-.242v10.017c.082.044.159.088.242.131V52.932z" fill="#11396A"/><path d="M53.378 52.932h-.286V63.08l.286.156V52.932z" fill="#03549B"/><path d="M53.086 34.888h-.236v18.044h.236V34.888z" fill="#055497"/><path d="M53.373 34.888h-.284v18.044h.285V34.888zM50.3 27.212h-.384v1.384a3.077 3.077 0 0 1 2.934 3.001v3.291h.236v-5.903a3.073 3.073 0 0 0-2.786-1.773z" fill="#0065B3"/><path d="M52.85 62.949v3.408l.242.132V63.08c-.083-.044-.16-.084-.242-.131z" fill="#0D2D60"/><path d="M53.094 63.08v3.409l.286.156v-3.409a24.729 24.729 0 0 1-.286-.156z" fill="#063A79"/><path d="M52.85 66.357v.003l.523.287v-.002l-.282-.156-.241-.132z" fill="url(#e)"/><path d="M52.853 66.36v6.213a3.043 3.043 0 0 1-1.115 2.286c.332-.016.652-.084.948-.197a3.059 3.059 0 0 0 .69-1.791v-6.22l-.523-.29z" fill="#228EC5"/><path d="M49.75 25.877h-.406c.022.03.04.064.06.097h.375l-.03-.097z" fill="#0073CB"/><path d="M49.783 25.973h-.375c.23.37.384.788.441 1.24h.072v-.526a2.99 2.99 0 0 0-.138-.714z" fill="#006BBE"/><path d="M49.918 27.212h-.07c.013.101.019.205.021.31v.284c.028.156.041.314.044.479v.314h.003v-1.387" fill="#0064B1"/><path d="M25.016 78.388h-.022v1.332h.022v-1.332z" fill="#CFCFCF"/><path d="M49.486 77.606a3.13 3.13 0 0 1-.839.115h-.487a4.022 4.022 0 0 1-2.228.67c-.04 0-.082 0-.123-.003H25.012v1.335h20.797l.123.003a4.044 4.044 0 0 0 3.554-2.12z" fill="#2189BE"/><path d="M24.994 73.976v4.412h.022V77.36h-.022v-3.383z" fill="#B6B6B6"/><path d="M25.917 77.36h-.901v1.025h20.797l.123.003c.82 0 1.586-.246 2.227-.67H26.904a1.505 1.505 0 0 1-.986-.358z" fill="#1D78A7"/><path d="M25.016 76.457h-.022v.903h.022v-.903z" fill="#A2A2A2"/><path d="M25.396 76.457h-.38v.903h.901a1.516 1.516 0 0 1-.52-.903z" fill="#196B95"/><path d="M25.016 74.476h-.022v1.98h.022v-1.98z" fill="#8B8B8B"/><path d="M25.166 74.476h-.15v1.98h.38a1.383 1.383 0 0 1-.021-.237v-1.74c-.033.003-.064.003-.096.003-.039 0-.074-.003-.113-.006z" fill="#165C80"/><path d="M24.994 74.238v.238h.022v-.019l-.022-.002v-.217z" fill="#7A7A7A"/><path d="M25.016 74.46v.02h.15a2.566 2.566 0 0 1-.15-.02z" fill="#135070"/><path d="M51.738 74.857h-.013v.01l.013-.01z" fill="#2189BF"/><path d="M52.852 52.932h-1.123v9.404l1.123.616v-10.02z" fill="#103663"/><path d="M52.852 34.888h-1.123v18.044h1.123V34.888z" fill="#054F8D"/><path d="M49.916 28.596v.236c.625.424 1.071.919 1.071 1.501v1.5a3.06 3.06 0 0 1 .74 1.93v1.122h1.123v-3.29a3.08 3.08 0 0 0-2.934-2.999z" fill="#005FA7"/><path d="M51.728 62.336v3.409l1.124.615v-3.408c-.367-.203-.743-.408-1.123-.616z" fill="#0C2A5A"/><path d="M51.728 65.742v.003l1.124.615v-.003l-1.123-.615z" fill="url(#f)"/><path d="M51.73 65.745v8.972c0 .047-.003.096-.005.142h.013a3.043 3.043 0 0 0 1.115-2.287V66.36l-1.123-.615z" fill="#2084B9"/><path d="M49.914 28.596v.236l.003.002v-.238h-.003z" fill="#005EA7"/><path d="M25.377 74.476h-.209c.038.003.077.003.113.003.033.003.063 0 .096-.003z" fill="#145475"/><path d="M25.016 74.238h-.022v.216c.008 0 .014.003.022.003v-.219z" fill="#737373"/><path d="M25.375 74.238h-.36v.222c.05.008.102.014.151.02h.209v-.242z" fill="#124C6A"/><path d="M25.016 73.976h-.022v.262h.022v-.262z" fill="#696969"/><path d="M25.375 73.976h-.36v.262h.36v-.262z" fill="#104560"/><path d="M49.916 28.834v.512c.027.175.041.353.044.536v.12c.25.389.41.838.463 1.319.208.148.4.32.564.511v-1.499c0-.58-.45-1.077-1.071-1.499z" fill="#004E8A"/><path d="M49.914 28.831v.496l.003.019v-.512l-.003-.003z" fill="#004E89"/><path d="M49.963 30.002v1.051c.161.076.318.167.463.268a3.042 3.042 0 0 0-.463-1.319z" fill="#00477D"/><path d="M50.939 76.7a3.8 3.8 0 0 1-.954.211h-.022v.38c-.002.047-.002.093-.008.14.375-.178.71-.427.984-.73z" fill="#259DDA"/><path d="M49.78 76.908a3.933 3.933 0 0 1-.296.698c.162-.047.32-.104.472-.175l.008-.14v-.38l-.184-.003zm1.831-1.409a3.094 3.094 0 0 1-1.312.293h-.334v1.119h.022c.331-.027.652-.101.953-.21.307-.34.54-.75.671-1.201z" fill="#2392CC"/><path d="M49.963 75.836c-.013.372-.077.73-.184 1.07l.184.002v-1.072zm1.76-.966a3.047 3.047 0 0 1-1.758.679v.243h.334c.469 0 .912-.104 1.312-.293.058-.202.096-.413.113-.629z" fill="#2189BF"/><path d="M49.07 76.894c-.26.32-.567.597-.91.824h.488c.29 0 .572-.041.838-.115.118-.221.22-.454.296-.697l-.712-.012z" fill="#1E80B2"/><path d="M47.856 76.876a4.015 4.015 0 0 1-1.923.486c-.04 0-.082 0-.123-.002H25.914c.266.224.611.358.986.358h21.261a4.13 4.13 0 0 0 .91-.823l-1.215-.02z" fill="#1B729E"/><path d="M49.964 75.79h-.258a4.02 4.02 0 0 1-.636 1.105l.713.01c.106-.339.17-.697.183-1.07v-.046" fill="#1D79A8"/><path d="M49.707 75.79h-.576a4.057 4.057 0 0 1-1.274 1.085l1.211.02c.269-.329.485-.7.639-1.106z" fill="#1A6B96"/><path d="M49.963 75.546c-.055.003-.11.005-.165.005h-.01c-.025.08-.053.162-.083.238h.258v-.243z" fill="#1B729F"/><path d="M49.72 75.552H49.3c-.055.081-.113.16-.17.24h.575c.03-.08.058-.159.082-.238-.022-.002-.043-.002-.065-.002z" fill="#18668F"/><path d="M27.94 76.457h-2.542c.064.361.253.678.521.903h19.896l.123.002c.696 0 1.35-.175 1.923-.487l-19.358-.322h-.025c-.19 0-.37-.036-.537-.096z" fill="#18668D"/><path d="M49.133 75.79h-.989a4.038 4.038 0 0 1-2.233.667h-17.97c.168.06.348.096.537.096h.025l19.359.322c.496-.27.929-.64 1.271-1.086z" fill="#176187"/><path d="M49.303 75.552h-.832a4.777 4.777 0 0 1-.326.24h.989c.057-.08.115-.159.17-.24z" fill="#165C81"/><path d="M26.493 74.476H25.375v1.74c0 .082.008.162.022.238h2.542a1.546 1.546 0 0 1-1.008-1.296 1.497 1.497 0 0 1-.438-.682z" fill="#15587B"/><path d="M26.928 75.16a1.55 1.55 0 0 0 1.008 1.297h17.97c.822 0 1.589-.246 2.233-.668H28.522c-.323 0-.624-.098-.877-.268a1.555 1.555 0 0 1-.717-.36z" fill="#145475"/><path d="M27.65 75.521c.25.17.551.268.877.268H48.144a3.43 3.43 0 0 0 .325-.24H27.952a1.357 1.357 0 0 1-.302-.028z" fill="#135272"/><path d="M26.485 74.454h-.918c-.057.011-.115.017-.172.022h1.098c-.003-.005-.005-.013-.008-.022z" fill="#134E6D"/><path d="M51.724 74.86c-.044.002-.09.002-.137.002H49.965v.687a3.035 3.035 0 0 0 1.759-.679v-.01z" fill="#1F81B3"/><path d="M51.728 52.932h-.74v8.997c.25.136.496.273.74.404v-9.401z" fill="#0F325D"/><path d="M51.728 34.888h-.74v18.044h.74V34.888z" fill="#044A84"/><path d="M50.988 31.835v3.053h.74v-1.122a3.06 3.06 0 0 0-.74-1.93z" fill="#00599D"/><path d="M50.988 61.929v3.408l.74.408v-3.409l-.74-.407z" fill="#0B2754"/><path d="M50.988 65.337v.003l.74.405v-.003l-.74-.405z" fill="url(#g)"/><path d="M50.99 65.34v4.612c0 .033-.003.066-.003.098a3.049 3.049 0 0 1-.556 1.617 3.016 3.016 0 0 1-.466 1.379v1.819H51.587c.046 0 .09 0 .137-.003.003-.046.005-.096.005-.142v-8.973l-.74-.407z" fill="#1E7DAE"/><path d="M49.965 74.862h-.028c-.03.238-.08.468-.148.69h.011c.055 0 .11-.003.165-.006v-.684z" fill="#1A6C97"/><path d="M49.965 74.523a4.41 4.41 0 0 1-.028.336h.028v-.336z" fill="#196993"/><path d="M49.938 74.862h-.269a3.942 3.942 0 0 1-.364.69h.485c.068-.222.117-.455.148-.69z" fill="#176288"/><path d="M49.965 73.475c-.017.49-.121.958-.297 1.384h.27c.013-.112.021-.224.027-.336v-1.048" fill="#176085"/><path d="M49.666 74.862h-.529c-.194.254-.419.487-.668.69h.833c.142-.217.265-.45.364-.69z" fill="#15587B"/><path d="M49.963 73.04l-.06.093a3.979 3.979 0 0 1-.764 1.726h.528c.176-.43.28-.894.296-1.384v-.435" fill="#15587A"/><path d="M26.924 74.476h-.43c.082.266.236.501.439.684l-.009-.11v-.574z" fill="#145475"/><path d="M26.992 74.476h-.068v.572c0 .038.003.074.008.11.2.18.447.306.72.36a1.535 1.535 0 0 1-.66-1.042z" fill="#135272"/><path d="M28.758 74.476h-1.77c.066.435.313.807.66 1.045.1.02.198.03.302.03H48.468c.249-.202.474-.434.668-.689H29.788c-.392 0-.75-.145-1.03-.386z" fill="#134F6E"/><path d="M49.902 73.133a3.06 3.06 0 0 1-2.518 1.321h-1.038a3.795 3.795 0 0 1-.433.022H28.76c.276.241.638.383 1.033.383H49.14a4.04 4.04 0 0 0 .761-1.726z" fill="#134E6C"/><path d="M26.925 74.454h-.439c.003.009.006.014.006.022h.43v-.022" fill="#124C6A"/><path d="M26.985 74.454h-.065v.022h.068c0-.005 0-.013-.003-.022z" fill="#114A66"/><path d="M28.734 74.454h-1.748c0 .009.003.014.003.022h1.77c-.008-.005-.017-.013-.025-.022z" fill="#114864"/><path d="M46.343 74.454h-17.61c.008.009.016.014.024.022H45.91c.146.003.29-.005.433-.022z" fill="#114662"/><path d="M26.438 74.238h-1.063v.238h.02c.057-.005.114-.01.172-.022h.918a1.894 1.894 0 0 1-.047-.216z" fill="#114966"/><path d="M26.424 73.976h-1.049v.262h1.063a1.46 1.46 0 0 1-.014-.188v-.074" fill="#10445F"/><path d="M50.43 71.664c-.134.192-.29.367-.465.52v.856c.257-.402.422-.872.466-1.376z" fill="#1A6F9A"/><path d="M49.962 72.572a4.207 4.207 0 0 1-.06.561c.022-.03.041-.06.06-.093v-.468z" fill="#135171"/><path d="M49.965 72.184c-.195.172-.411.32-.644.44a4.053 4.053 0 0 1-2.975 1.83h1.038a3.056 3.056 0 0 0 2.518-1.32c.033-.184.055-.37.06-.561v-.389" fill="#114966"/><path d="M26.92 74.238h-.485c.012.074.025.148.047.216h.439v-.216" fill="#114864"/><path d="M26.973 74.238h-.05v.216h.066a1.697 1.697 0 0 1-.014-.166v-.05" fill="#114661"/><path d="M28.532 74.238h-1.561v.05c.002.057.005.112.013.166h1.748a1.87 1.87 0 0 1-.2-.216z" fill="#10455F"/><path d="M49.32 72.624a2.74 2.74 0 0 1-.242.11 4.03 4.03 0 0 1-3.145 1.504c-.041 0-.082 0-.123-.002H28.533c.06.079.126.15.2.216h17.611a4.043 4.043 0 0 0 2.975-1.828z" fill="#10445F"/><path d="M26.922 73.976h-.498v.074c0 .063.005.125.014.188h.485v-.262" fill="#10435D"/><path d="M26.973 73.976h-.05v.262h.05v-.262z" fill="#10415B"/><path d="M28.37 73.976h-1.4v.262h1.562a1.83 1.83 0 0 1-.161-.262z" fill="#0F415A"/><path d="M49.08 72.734c-.14.057-.282.104-.43.137a4.247 4.247 0 0 1-2.841 1.105H28.373c.047.093.099.18.162.262H45.81l.124.003a4.04 4.04 0 0 0 3.145-1.507z" fill="#0F4059"/><path d="M50.987 52.932h-.547v8.696l.547.3v-8.996z" fill="#0C2B4D"/><path d="M50.987 34.888h-.547v18.044h.547V34.888z" fill="#043E6E"/><path d="M50.424 31.32c.008.091.016.184.016.277v3.291h.548v-3.053a3.144 3.144 0 0 0-.564-.514z" fill="#004A83"/><path d="M50.44 61.628v3.405l.547.301v-3.408c-.18-.096-.364-.197-.547-.298z" fill="#092147"/><path d="M50.44 65.036l.547.304v-.003l-.547-.3z" fill="url(#h)"/><path d="M50.439 65.036v6.415c0 .071-.006.142-.011.21.323-.459.526-1.011.556-1.616l.003-.099v-4.612l-.548-.298z" fill="#196891"/><path d="M50.442 52.932h-.477v8.436c.159.087.318.175.477.26v-8.696z" fill="#0B2646"/><path d="M50.442 34.888h-.477v18.044h.477V34.888z" fill="#033864"/><path d="M49.963 31.053c0 .022.003.044.003.065v3.77h.476v-3.29a4.516 4.516 0 0 0-.016-.277 3.24 3.24 0 0 0-.463-.268z" fill="#004377"/><path d="M49.965 61.368v3.405l.477.26v-3.405l-.477-.26z" fill="#081E40"/><path d="M49.965 64.774v.002l.477.26-.477-.262z" fill="url(#i)"/><path d="M49.965 64.776v7.408c.175-.156.331-.328.466-.52.005-.07.008-.14.01-.21v-6.415l-.476-.263z" fill="#165E83"/><path d="M49.963 31.053v.935l.003.06v-.932c0-.02-.003-.041-.003-.063z" fill="#00355E"/><path d="M49.963 31.988v.903l.003.06v-.902c0-.02-.003-.039-.003-.06z" fill="#003156"/><path d="M49.962 70.592a4.026 4.026 0 0 1-.644 2.032c.233-.12.45-.268.644-.44v-1.592z" fill="#10445F"/><path d="M49.965 70.354a3.998 3.998 0 0 1-.885 2.38c.082-.033.162-.071.241-.11.381-.588.614-1.282.644-2.032v-.238z" fill="#0F4059"/><path d="M49.963 32.894v1.061l.003.052v.88-1.933l-.003-.06z" fill="#002F53"/><path d="M49.966 34.888h-.003v.367l.003.06v-.427z" fill="#022644"/><path d="M49.963 33.955v.933h.003v-.88c0-.02-.003-.036-.003-.053z" fill="#002E51"/><path d="M49.963 35.255v1.455l.003.06v16.161-17.616l-.003-.06z" fill="#022542"/><path d="M49.966 52.932h-.003v8.433l.003.003v-8.436z" fill="#07192E"/><path d="M49.963 36.707v16.224h.003v-16.16c0-.023-.003-.042-.003-.064z" fill="#022441"/><path d="M49.963 61.365v3.409h.003v-3.406l-.003-.003z" fill="#05132A"/><path d="M49.963 64.774l.003.003v-.003h-.003z" fill="url(#j)"/><path d="M49.96 64.774v5.197a3.86 3.86 0 0 1-1.312 2.9c.148-.036.29-.082.43-.137a3.998 3.998 0 0 0 .886-2.38v-5.578l-.003-.002z" fill="#0F3D56"/><path d="M31.319 24.518h-.098v1.36-.622h.098v-.738z" fill="#EEE"/><path d="M46.785 24.518H31.316v.738h15.422l.05-.003h.046c.696 0 1.34.233 1.858.624h.652a3.087 3.087 0 0 0-2.56-1.36z" fill="#0070C6"/><path d="M49.345 25.877h-.652c.041.03.08.064.118.097h.595a1.143 1.143 0 0 0-.06-.097z" fill="#006BBE"/><path d="M49.405 25.973h-.595c.392.328.705.755.894 1.24h.142a3.056 3.056 0 0 0-.44-1.24z" fill="#0065B2"/><path d="M49.846 27.212h-.143c.074.189.13.386.165.591v-.285a2.867 2.867 0 0 0-.022-.306z" fill="#005EA7"/><path d="M49.867 27.803v.79c.014 0 .03 0 .044.003v-.314c0-.162-.017-.323-.044-.479z" fill="#005BA2"/><path d="M49.867 28.596v.208c.014.011.03.02.044.03V28.6c-.014-.003-.028-.003-.044-.003z" fill="#005698"/><path d="M49.867 28.802v.284c.017.08.033.159.044.24v-.495l-.044-.03z" fill="#00487F"/><path d="M31.319 25.256h-.098v.621h.098v-.62z" fill="#D7D7D7"/><path d="M46.834 25.253h-.046l-.05.003H31.316v.621h17.378a3.087 3.087 0 0 0-1.86-.623z" fill="#0065B3"/><path d="M48.691 25.877h-2.734c.274.006.542.039.803.097h2.05a1.993 1.993 0 0 0-.119-.097z" fill="#0061AC"/><path d="M48.81 25.973h-2.05a4.08 4.08 0 0 1 2.14 1.24h.802a3.046 3.046 0 0 0-.893-1.24z" fill="#005BA1"/><path d="M49.703 27.212H48.9c.362.397.644.865.828 1.382h.046c.03 0 .063 0 .093.002v-.79a3.01 3.01 0 0 0-.164-.594z" fill="#005698"/><path d="M49.777 28.594h-.047c.017.049.034.098.05.15l.09.058v-.208h-.093z" fill="#005290"/><path d="M49.78 28.744c.035.112.065.227.09.342v-.284l-.09-.058z" fill="#004579"/><path d="M4.175 25.877h41.633a4.078 4.078 0 0 1 4.154 4.005v40.089a3.86 3.86 0 0 1-1.217 2.812 4.249 4.249 0 0 1-2.934 1.193H4.175a4.17 4.17 0 0 1-2.934-1.193A3.89 3.89 0 0 1 0 69.971V29.882a4.1 4.1 0 0 1 4.175-4.005z" fill="#0078D4"/><path d="M11.98 42.416a12.907 12.907 0 0 1 5.181-5.531 16.281 16.281 0 0 1 8.26-1.907c2.671-.057 5.31.602 7.639 1.907a12.807 12.807 0 0 1 5.06 5.244 16.61 16.61 0 0 1 1.764 7.769c.05 2.817-.58 5.608-1.838 8.127a12.889 12.889 0 0 1-5.206 5.46 17.107 17.107 0 0 1-15.734 0A13.143 13.143 0 0 1 12 58.192a16.216 16.216 0 0 1-1.791-7.676 17.93 17.93 0 0 1 1.764-8.056l.008-.044zm5.587 12.97a8.193 8.193 0 0 0 2.912 3.624 7.734 7.734 0 0 0 4.559 1.335 8.096 8.096 0 0 0 4.772-1.36 7.86 7.86 0 0 0 2.841-3.646c.622-1.622.926-3.343.907-5.077a14.646 14.646 0 0 0-.86-5.149 8.04 8.04 0 0 0-2.72-3.764 7.79 7.79 0 0 0-4.773-1.428 7.99 7.99 0 0 0-4.655 1.335 8.45 8.45 0 0 0-2.983 3.647 14.091 14.091 0 0 0 0 10.482z" fill="#fff"/><path d="M25.206 39.919a7.791 7.791 0 0 1 4.773 1.428 8.055 8.055 0 0 1 2.72 3.764c.57 1.584.863 3.258.863 4.94 0 .068 0 .137-.002.205v.142c0 1.685-.305 3.36-.91 4.935a7.886 7.886 0 0 1-2.841 3.647 8.093 8.093 0 0 1-4.501 1.365c-.09 0-.181-.003-.272-.006-.07.003-.14.003-.21.003a7.74 7.74 0 0 1-4.349-1.338 8.146 8.146 0 0 1-2.912-3.624 14.101 14.101 0 0 1 .003-10.488 8.431 8.431 0 0 1 2.983-3.647 7.993 7.993 0 0 1 4.425-1.337c.077.005.154.008.23.01zm-.375-4.952c-2.674 0-5.31.657-7.671 1.918a12.908 12.908 0 0 0-5.181 5.531l-.003.047a17.896 17.896 0 0 0-1.767 7.747c0 .104 0 .208.003.309-.003.087-.003.178-.003.265 0 2.577.614 5.116 1.792 7.41a13.161 13.161 0 0 0 5.107 5.294 17.097 17.097 0 0 0 15.731 0 12.86 12.86 0 0 0 5.206-5.46 17.517 17.517 0 0 0 1.84-7.816c0-.104 0-.208-.002-.314.003-.104.003-.21.003-.315 0-2.587-.609-5.14-1.77-7.454a12.805 12.805 0 0 0-5.06-5.244 14.96 14.96 0 0 0-7.321-1.912c-.107 0-.211 0-.318.003-.194-.006-.389-.009-.586-.009z" fill="#fff"/><path d="M11.98 42.416a12.907 12.907 0 0 1 5.181-5.531 16.281 16.281 0 0 1 8.26-1.907c2.671-.057 5.31.602 7.639 1.907a12.807 12.807 0 0 1 5.06 5.244 16.61 16.61 0 0 1 1.764 7.769c.05 2.817-.58 5.608-1.838 8.127a12.889 12.889 0 0 1-5.206 5.46 17.107 17.107 0 0 1-15.734 0A13.143 13.143 0 0 1 12 58.192a16.216 16.216 0 0 1-1.791-7.676 17.93 17.93 0 0 1 1.764-8.056l.008-.044zm5.587 12.97a8.193 8.193 0 0 0 2.912 3.624 7.734 7.734 0 0 0 4.559 1.335 8.096 8.096 0 0 0 4.772-1.36 7.86 7.86 0 0 0 2.841-3.646c.622-1.622.926-3.343.907-5.077a14.646 14.646 0 0 0-.86-5.149 8.04 8.04 0 0 0-2.72-3.764 7.79 7.79 0 0 0-4.773-1.428 7.99 7.99 0 0 0-4.655 1.335 8.45 8.45 0 0 0-2.983 3.647 14.091 14.091 0 0 0 0 10.482z" fill="url(#k)"/><path d="M11.98 42.416a12.907 12.907 0 0 1 5.181-5.531 16.281 16.281 0 0 1 8.26-1.907c2.671-.057 5.31.602 7.639 1.907a12.807 12.807 0 0 1 5.06 5.244 16.61 16.61 0 0 1 1.764 7.769c.05 2.817-.58 5.608-1.838 8.127a12.889 12.889 0 0 1-5.206 5.46 17.107 17.107 0 0 1-15.734 0A13.143 13.143 0 0 1 12 58.192a16.216 16.216 0 0 1-1.791-7.676 17.93 17.93 0 0 1 1.764-8.056l.008-.044zm5.587 12.97a8.193 8.193 0 0 0 2.912 3.624 7.734 7.734 0 0 0 4.559 1.335 8.096 8.096 0 0 0 4.772-1.36 7.86 7.86 0 0 0 2.841-3.646c.622-1.622.926-3.343.907-5.077a14.646 14.646 0 0 0-.86-5.149 8.04 8.04 0 0 0-2.72-3.764 7.79 7.79 0 0 0-4.773-1.428 7.99 7.99 0 0 0-4.655 1.335 8.45 8.45 0 0 0-2.983 3.647 14.091 14.091 0 0 0 0 10.482z" fill="url(#l)"/></svg>