<svg xmlns="http://www.w3.org/2000/svg" viewBox="0 0 18 18"><path clip-rule="evenodd" d="M14.625.25a3.339 3.339 0 0 1 2.378.973l.002.002a3.336 3.336 0 0 1-.03 4.738L6.669 16.27a.75.75 0 0 1-.344.196l-4.91 1.26a.75.75 0 0 1-.913-.913l1.258-4.91a.75.75 0 0 1 .197-.345L12.264 1.252A3.337 3.337 0 0 1 14.625.25zm.01 1.5c.243-.002.483.045.708.137zm.708.137c.224.091.428.227.6.397a1.837 1.837 0 0 1-.019 2.61L5.752 15.064l-3.484.894.893-3.484L13.327 2.309l.006-.006a1.836 1.836 0 0 1 1.302-.553" fill-rule="evenodd"/><path d="M12.502 2.074l3.651 3.651M2.487 12.09l3.654 3.648" stroke-linecap="round" stroke-linejoin="round" stroke="#000" stroke-width="1.5"/></svg>