<svg xmlns="http://www.w3.org/2000/svg" viewBox="0 0 24 23"><path clip-rule="evenodd" d="M4.6 0a1 1 0 0 1 1 1v2h2a1 1 0 0 1 0 2h-2v2a1 1 0 0 1-2 0V5h-2a1 1 0 1 1 0-2h2V1a1 1 0 0 1 1-1zm7.96 7h6.08c.665 0 1.225 0 1.683.037.479.04.933.124 1.365.344a3.5 3.5 0 0 1 1.53 1.53c.22.432.305.887.344 1.366.037.458.037 1.017.037 1.683v6.08c0 .666 0 1.226-.037 1.683-.04.48-.124.934-.344 1.366a3.5 3.5 0 0 1-1.53 1.53c-.431.22-.886.305-1.365.344-.458.037-1.018.037-1.683.037h-6.08c-.667 0-1.226 0-1.684-.037-.479-.04-.934-.124-1.366-.345a3.5 3.5 0 0 1-1.53-1.529c-.22-.432-.304-.887-.343-1.366-.038-.457-.038-1.017-.038-1.683v-6.08c0-.666 0-1.226.038-1.683.039-.48.124-.934.344-1.366a3.5 3.5 0 0 1 1.53-1.53c.431-.22.886-.304 1.365-.344C11.334 7 11.893 7 12.559 7zm-1.521 2.03c-.355.03-.518.081-.62.133a1.5 1.5 0 0 0-.656.656c-.053.103-.104.265-.133.62-.03.367-.03.844-.03 1.561v6c0 .717 0 1.194.03 1.56.03.356.08.518.133.621a1.5 1.5 0 0 0 .655.655c.103.053.266.104.62.133.367.03.845.031 1.561.031h6c.717 0 1.194 0 1.56-.03.356-.03.518-.081.621-.133a1.5 1.5 0 0 0 .656-.656c.052-.103.104-.265.133-.62.03-.367.03-.844.03-1.561v-6c0-.717 0-1.194-.03-1.56-.03-.356-.08-.518-.133-.621a1.5 1.5 0 0 0-.656-.656c-.103-.052-.265-.103-.62-.132C19.793 9 19.316 9 18.6 9h-6c-.717 0-1.194 0-1.561.03z" fill-rule="evenodd"/></svg>