<svg xmlns="http://www.w3.org/2000/svg" viewBox="0 0 19 19"><path d="M5.35 18.973c-.862 0-1.52-.224-1.971-.67-.447-.442-.67-1.09-.67-1.947V8.769c0-.856.223-1.506.67-1.947.452-.446 1.109-.67 1.97-.67h1.22a.868.868 0 1 1 0 1.737h-1.08c-.342 0-.604.088-.786.265-.176.171-.265.436-.265.794v7.229c0 .358.089.625.265.802.182.176.444.265.787.265h8.7c.337 0 .597-.089.779-.265.181-.177.272-.444.272-.802V8.948c0-.358-.09-.623-.272-.794-.182-.177-.442-.265-.78-.265h-1.047a.868.868 0 1 1 0-1.737h1.196c.862 0 1.516.224 1.963.67.451.447.677 1.096.677 1.947v7.587c0 .851-.226 1.5-.677 1.947-.447.446-1.101.67-1.963.67H5.35zm4.486-6.286a.765.765 0 0 1-.56-.234.756.756 0 0 1-.235-.553V4.158l.07-1.145-.451.584-1.028 1.099a.693.693 0 0 1-.53.226.725.725 0 0 1-.498-.187.652.652 0 0 1-.203-.491c0-.182.073-.348.218-.499l2.602-2.5a.94.94 0 0 1 .311-.21.776.776 0 0 1 .616 0 .848.848 0 0 1 .311.21l2.601 2.5c.146.151.219.317.219.499a.64.64 0 0 1-.21.49.715.715 0 0 1-.491.188.684.684 0 0 1-.522-.226L11.02 3.597l-.444-.584.062 1.145V11.9a.756.756 0 0 1-.233.553.757.757 0 0 1-.569.234z"/></svg>