<svg xmlns="http://www.w3.org/2000/svg" viewBox="0 0 12 18"><defs><linearGradient id="a" x1="6" y1="3" x2="6" y2="17.731" gradientUnits="userSpaceOnUse"><stop offset="0" stop-color="#f7f7f7"/><stop offset="1" stop-color="#dedede"/></linearGradient><linearGradient id="b" x1="6" y1="3" x2="6" y2="17.731" gradientUnits="userSpaceOnUse"><stop offset="0" stop-color="#f7f7f7"/><stop offset="1" stop-color="#dedede"/></linearGradient></defs><path d="M6 16.48c-1.459 0-2.609-.39-3.45-1.17-.84-.778-1.261-1.885-1.261-3.32V3.85h8.207c.39 0 .69.102.9.306.21.197.315.482.315.853v6.983c0 1.434-.424 2.54-1.27 3.32C8.6 16.09 7.452 16.479 6 16.479z" fill="url(#a)"/><path clip-rule="evenodd" d="M6 17.731c1.243 0 2.312-.229 3.209-.686a4.821 4.821 0 0 0 2.068-1.985c.482-.871.723-1.929.723-3.171V4.822c0-.698-.21-1.249-.63-1.65-.421-.408-.996-.612-1.725-.612H1.289V.64a.593.593 0 0 0-.195-.445A.603.603 0 0 0 .64 0a.623.623 0 0 0-.455.195A.607.607 0 0 0 0 .64v11.249c0 1.242.241 2.3.723 3.171a4.82 4.82 0 0 0 2.068 1.985c.897.457 1.966.686 3.209.686zm-3.45-2.42c.841.779 1.991 1.168 3.45 1.168 1.453 0 2.6-.39 3.44-1.168.848-.78 1.271-1.886 1.271-3.32V5.008c0-.371-.105-.656-.315-.853-.21-.204-.51-.306-.9-.306H1.29v8.142c0 1.434.42 2.54 1.261 3.32z" fill="url(#b)" fill-rule="evenodd"/></svg>