<svg xmlns="http://www.w3.org/2000/svg" viewBox="0 0 12 18"><path clip-rule="evenodd" d="M9.209 17.045c-.897.457-1.966.686-3.209.686s-2.312-.229-3.209-.686A4.82 4.82 0 0 1 .723 15.06C.241 14.19 0 13.131 0 11.89V.639C0 .468.062.32.185.196A.623.623 0 0 1 .64 0c.18 0 .33.065.454.195.13.123.195.272.195.445v1.92h8.356c.729 0 1.304.204 1.724.612.42.401.631.952.631 1.65v7.067c0 1.242-.241 2.3-.723 3.171a4.821 4.821 0 0 1-2.068 1.985zM2.55 15.31c.841.779 1.991 1.168 3.45 1.168 1.453 0 2.6-.39 3.44-1.168.848-.78 1.271-1.886 1.271-3.32V5.008c0-.371-.105-.656-.315-.853-.21-.204-.51-.306-.9-.306H1.29v8.142c0 1.434.42 2.54 1.261 3.32z" fill="#3139FB" fill-rule="evenodd"/><path d="M3.014 10.637h5.963c.253 0 .451-.071.593-.213.143-.143.214-.338.214-.585V5.564c0-.253-.071-.448-.214-.584-.142-.136-.34-.204-.593-.204H3.014c-.247 0-.442.068-.584.204-.143.136-.214.33-.214.584V9.84c0 .247.071.442.214.585.142.142.337.213.584.213z" fill="#3139FB"/><path d="M4.22 14.244c.792.792 2.902.792 3.693 0" stroke-linecap="round" stroke="#3139FB" stroke-width="1.055"/></svg>