<svg xmlns="http://www.w3.org/2000/svg" viewBox="0 0 25 20"><path clip-rule="evenodd" d="M4.6.5a1 1 0 0 1 1 1v2h2a1 1 0 0 1 0 2h-2v2a1 1 0 0 1-2 0v-2h-2a1 1 0 1 1 0-2h2v-2a1 1 0 0 1 1-1z" fill-rule="evenodd"/><path d="M8.02 16.787c.538 0 .837-.24.99-.808l.468-1.383h3.153l.468 1.383c.153.568.446.808.99.808.586 0 .967-.357.967-.896 0-.211-.035-.387-.105-.604l-2.326-6.451c-.252-.732-.744-1.078-1.559-1.078-.767 0-1.26.351-1.512 1.072L7.2 15.357c-.07.2-.105.387-.105.557 0 .54.351.873.925.873zm1.88-3.633l1.149-3.562h.04l1.155 3.562H9.9zm8.608 3.65c1.002 0 1.775-.456 2.132-1.282h.065v.515c.017.51.34.774.78.774.468 0 .79-.288.79-.82v-5.356c0-.533-.322-.82-.79-.82-.452 0-.78.287-.78.814v.51h-.065c-.357-.809-1.154-1.301-2.132-1.301-1.688 0-2.772 1.365-2.772 3.475 0 2.132 1.084 3.492 2.772 3.492zm.521-1.312c-1.008 0-1.629-.826-1.629-2.168 0-1.336.627-2.174 1.63-2.174.99 0 1.64.856 1.64 2.18 0 1.33-.639 2.162-1.64 2.162z"/></svg>