<svg viewBox="0 0 512 512" xmlns="http://www.w3.org/2000/svg"><path d="m384 48c8.8 0 16 7.2 16 16v384c0 8.8-7.2 16-16 16h-288c-8.8 0-16-7.2-16-16v-384c0-8.8 7.2-16 16-16zm-288-48c-35.3 0-64 28.7-64 64v384c0 35.3 28.7 64 64 64h288c35.3 0 64-28.7 64-64v-384c0-35.3-28.7-64-64-64zm144 256a64 64 0 1 0 0-128 64 64 0 1 0 0 128zm-32 32c-44.2 0-80 35.8-80 80 0 8.8 7.2 16 16 16h192c8.8 0 16-7.2 16-16 0-44.2-35.8-80-80-80zm304-208c0-8.8-7.2-16-16-16s-16 7.2-16 16v64c0 8.8 7.2 16 16 16s16-7.2 16-16zm-16 112c-8.8 0-16 7.2-16 16v64c0 8.8 7.2 16 16 16s16-7.2 16-16v-64c0-8.8-7.2-16-16-16zm16 144c0-8.8-7.2-16-16-16s-16 7.2-16 16v64c0 8.8 7.2 16 16 16s16-7.2 16-16z"/></svg>