<svg viewBox="0 0 640 512" xmlns="http://www.w3.org/2000/svg"><path d="m38.8 5.1c-10.4-8.2-25.5-6.3-33.7 4.1s-6.3 25.5 4.1 33.7l592 464c10.4 8.2 25.5 6.3 33.7-4.1s6.3-25.5-4.1-33.7l-88.2-69.1c2.7-7.8 1.3-16.5-3.9-23l-14.9-18.6c-28.3-35.5-43.8-79.6-43.8-125v-33.4c0-75.8-55.5-138.6-128-150.1v-17.9c0-17.7-14.3-32-32-32s-32 14.3-32 32v17.9c-43.9 7-81.5 32.7-104.4 68.7zm182.9 143.3c17.9-31.3 51.6-52.4 90.3-52.4h8 8c57.4 0 104 46.6 104 104v33.4c0 32.7 6.4 64.8 18.7 94.5zm184.5 267.6-60.9-48h-177c21.2-32.8 34.4-70.3 38.4-109.1l-46.7-36.8v11.4c0 45.4-15.5 89.5-43.8 124.9l-14.9 18.6c-5.8 7.2-6.9 17.1-2.9 25.4s12.4 13.6 21.6 13.6zm-22.2 32h-64-64c0 17 6.7 33.3 18.7 45.3s28.3 18.7 45.3 18.7 33.3-6.7 45.3-18.7 18.7-28.3 18.7-45.3z"/></svg>