<svg viewBox="0 0 384 512" xmlns="http://www.w3.org/2000/svg"><path d="m64 48c-8.8 0-16 7.2-16 16v384c0 8.8 7.2 16 16 16h80v-64c0-26.5 21.5-48 48-48s48 21.5 48 48v64h80c8.8 0 16-7.2 16-16v-384c0-8.8-7.2-16-16-16zm-64 16c0-35.3 28.7-64 64-64h256c35.3 0 64 28.7 64 64v384c0 35.3-28.7 64-64 64h-256c-35.3 0-64-28.7-64-64zm88 40c0-8.8 7.2-16 16-16h48c8.8 0 16 7.2 16 16v48c0 8.8-7.2 16-16 16h-48c-8.8 0-16-7.2-16-16zm144-16h48c8.8 0 16 7.2 16 16v48c0 8.8-7.2 16-16 16h-48c-8.8 0-16-7.2-16-16v-48c0-8.8 7.2-16 16-16zm-144 144c0-8.8 7.2-16 16-16h48c8.8 0 16 7.2 16 16v48c0 8.8-7.2 16-16 16h-48c-8.8 0-16-7.2-16-16zm144-16h48c8.8 0 16 7.2 16 16v48c0 8.8-7.2 16-16 16h-48c-8.8 0-16-7.2-16-16v-48c0-8.8 7.2-16 16-16z"/></svg>