<svg viewBox="0 0 512 512" xmlns="http://www.w3.org/2000/svg"><path d="m160 0c13.3 0 24 10.7 24 24v40h144v-40c0-13.3 10.7-24 24-24s24 10.7 24 24v40h40c35.3 0 64 28.7 64 64v16 48 256c0 35.3-28.7 64-64 64h-320c-35.3 0-64-28.7-64-64v-256-48-16c0-35.3 28.7-64 64-64h40v-40c0-13.3 10.7-24 24-24zm272 192h-352v256c0 8.8 7.2 16 16 16h320c8.8 0 16-7.2 16-16zm-95 89-47 47 47 47c9.4 9.4 9.4 24.6 0 33.9s-24.6 9.4-33.9 0l-47-47-47 47c-9.4 9.4-24.6 9.4-33.9 0s-9.4-24.6 0-33.9l47-47-47-47c-9.4-9.4-9.4-24.6 0-33.9s24.6-9.4 33.9 0l47 47 47-47c9.4-9.4 24.6-9.4 33.9 0s9.4 24.6 0 33.9z"/></svg>