<svg viewBox="0 0 448 512" xmlns="http://www.w3.org/2000/svg"><path d="m248 24c0-13.3-10.7-24-24-24s-24 10.7-24 24v32h-32c-13.3 0-24 10.7-24 24s10.7 24 24 24h32v40h-140.4c-32.9 0-59.6 26.7-59.6 59.6 0 8.2 1.7 16.3 4.9 23.8l54.2 124.6h52.3l-62.4-143.8c-.6-1.5-1-3-1-4.6 0-6.4 5.2-11.6 11.6-11.6h164.4 164.4c6.4 0 11.6 5.2 11.6 11.6 0 1.6-.3 3.2-1 4.6l-62.5 143.8h52.3l54.2-124.6c3.3-7.5 4.9-15.6 4.9-23.8 0-32.9-26.7-59.6-59.6-59.6h-140.3v-40h32c13.3 0 24-10.7 24-24s-10.7-24-24-24h-32zm-146.8 408h245.6l16.6 32h-278.7l16.6-32zm283.7-30.7c-5.5-10.6-16.5-17.3-28.4-17.3h-265c-12 0-22.9 6.7-28.4 17.3l-26.5 51.2c-3 5.8-4.6 12.2-4.6 18.7 0 22.6 18.2 40.8 40.8 40.8h302.4c22.5 0 40.8-18.2 40.8-40.8 0-6.5-1.6-12.9-4.6-18.7z"/></svg>