<svg viewBox="0 0 448 512" xmlns="http://www.w3.org/2000/svg"><path d="m80 80v112c0 2.5 1.2 4.9 3.2 6.4l51.2 38.4c6.8 5.1 10.4 13.4 9.5 21.9l-10.4 93.3h-48.3l9.4-85-40.2-30.2c-14.1-10.6-22.4-27.2-22.4-44.8v-120c0-22.1 17.9-40 40-40h304c22.1 0 40 17.9 40 40v120c0 17.6-8.3 34.2-22.4 44.8l-40.2 30.2 9.4 85h-48.3l-10.4-93.3c-.9-8.4 2.7-16.8 9.5-21.9l51.2-38.4c2-1.5 3.2-3.9 3.2-6.4v-112h-64v24c0 13.3-10.7 24-24 24s-24-10.7-24-24v-24h-64v24c0 13.3-10.7 24-24 24s-24-10.7-24-24v-24zm4.7 384h278.6l-16.6-32h-245.5zm271.9-80c12 0 22.9 6.7 28.4 17.3l26.5 51.2c3 5.8 4.6 12.2 4.6 18.7 0 22.5-18.2 40.8-40.8 40.8h-302.5c-22.6 0-40.8-18.2-40.8-40.8 0-6.5 1.6-12.9 4.6-18.7l26.5-51.2c5.4-10.6 16.4-17.3 28.4-17.3h265zm-148.6-96c-8.8 0-16-7.2-16-16v-48c0-17.7 14.3-32 32-32s32 14.3 32 32v48c0 8.8-7.2 16-16 16z"/></svg>