<svg viewBox="0 0 320 512" xmlns="http://www.w3.org/2000/svg"><path d="m232 152a72 72 0 1 0 -144 0 72 72 0 1 0 144 0zm24 120h-12.6l10.7 80h-48.4l-10.7-80h-35-35l-10.7 80h-48.4l10.7-80h-12.6c-13.3 0-24-10.7-24-24s10.7-24 24-24c-15.1-20.1-24-45-24-72 0-66.3 53.7-120 120-120s120 53.7 120 120c0 27-8.9 51.9-24 72 13.3 0 24 10.7 24 24s-10.7 24-24 24zm-203.3 192h214.6l-16.6-32h-181.5zm207.9-80c12 0 22.9 6.7 28.4 17.3l26.5 51.2c3 5.8 4.6 12.2 4.6 18.7 0 22.5-18.2 40.8-40.8 40.8h-238.5c-22.6 0-40.8-18.2-40.8-40.8 0-6.5 1.6-12.9 4.6-18.7l26.5-51.2c5.4-10.6 16.4-17.3 28.4-17.3h201z"/></svg>