<svg viewBox="0 0 576 512" xmlns="http://www.w3.org/2000/svg"><path d="m512 80c8.8 0 16 7.2 16 16v320c0 8.8-7.2 16-16 16h-448c-8.8 0-16-7.2-16-16v-320c0-8.8 7.2-16 16-16zm-448-48c-35.3 0-64 28.7-64 64v320c0 35.3 28.7 64 64 64h448c35.3 0 64-28.7 64-64v-320c0-35.3-28.7-64-64-64zm136 176c14.2 0 27 6.1 35.8 16s24 10.7 33.9 1.9 10.7-24 1.9-33.9c-17.5-19.6-43.1-32-71.5-32-53 0-96 43-96 96s43 96 96 96c28.4 0 54-12.4 71.5-32 8.8-9.9 8-25-1.9-33.9s-25-8-33.9 1.9c-8.8 9.9-21.6 16-35.8 16-26.5 0-48-21.5-48-48s21.5-48 48-48zm144 48c0-26.5 21.5-48 48-48 14.2 0 27 6.1 35.8 16s24 10.7 33.9 1.9 10.7-24 1.9-33.9c-17.5-19.6-43.1-32-71.5-32-53 0-96 43-96 96s43 96 96 96c28.4 0 54-12.4 71.5-32 8.8-9.9 8-25-1.9-33.9s-25-8-33.9 1.9c-8.8 9.9-21.6 16-35.8 16-26.5 0-48-21.5-48-48z"/></svg>