<svg viewBox="0 0 512 512" xmlns="http://www.w3.org/2000/svg"><path d="m168.2 384.9c-15-5.4-31.7-3.1-44.6 6.4-8.2 6-22.3 14.8-39.4 22.7 5.6-14.7 9.9-31.3 11.3-49.4 1-12.9-3.3-25.7-11.8-35.5-23.3-26.3-35.7-57.1-35.7-89.1 0-79.5 83.3-160 208-160s208 80.5 208 160-83.3 160-208 160c-31.6 0-61.3-5.5-87.8-15.1zm-141.9 38.9c-1.6 2.7-3.3 5.4-5.1 8.1l-.3.5c-1.6 2.3-3.2 4.6-4.8 6.9-3.5 4.7-7.3 9.3-11.3 13.5-4.6 4.6-5.9 11.4-3.4 17.4s8.3 9.9 14.8 9.9c5.1 0 10.2-.3 15.3-.8l.7-.1c4.4-.5 8.8-1.1 13.2-1.9.8-.1 1.6-.3 2.4-.5 17.8-3.5 34.9-9.5 50.1-16.1 22.9-10 42.4-21.9 54.3-30.6 31.8 11.5 67 17.9 104.1 17.9 141.4 0 256-93.1 256-208s-114.9-208-256.3-208-256 93.1-256 208c0 45.1 17.7 86.8 47.7 120.9-1.9 24.5-11.4 46.3-21.4 62.9zm117.7-151.8a32 32 0 1 0 0-64 32 32 0 1 0 0 64zm144-32a32 32 0 1 0 -64 0 32 32 0 1 0 64 0zm80 32a32 32 0 1 0 0-64 32 32 0 1 0 0 64z"/></svg>