<svg viewBox="0 0 512 512" xmlns="http://www.w3.org/2000/svg"><path d="m255.4 48.2c.2-.1.4-.2.6-.2s.4.1.6.2l204 145.8c2.1 1.5 3.4 3.9 3.4 6.5v13.6l-172.5 141.6c-20.7 17-50.4 17-71.1 0l-172.4-141.6v-13.6c0-2.6 1.2-5 3.4-6.5zm-207.4 228 142 116.6c38.4 31.5 93.7 31.5 132 0l142-116.6v179.8c0 4.4-3.6 8-8 8h-400c-4.4 0-8-3.6-8-8zm208-276.2c-10.2 0-20.2 3.2-28.5 9.1l-204 145.8c-14.8 10.5-23.5 27.5-23.5 45.6v255.5c0 30.9 25.1 56 56 56h400c30.9 0 56-25.1 56-56v-255.5c0-18.1-8.7-35.1-23.4-45.6l-204.1-145.8c-8.3-5.9-18.3-9.1-28.5-9.1z"/></svg>