<svg viewBox="0 0 384 512" xmlns="http://www.w3.org/2000/svg"><path d="m320 464c8.8 0 16-7.2 16-16v-288h-80c-17.7 0-32-14.3-32-32v-80h-160c-8.8 0-16 7.2-16 16v384c0 8.8 7.2 16 16 16zm-320-400c0-35.3 28.7-64 64-64h165.5c17 0 33.3 6.7 45.3 18.7l90.5 90.5c12 12 18.7 28.3 18.7 45.3v293.5c0 35.3-28.7 64-64 64h-256c-35.3 0-64-28.7-64-64zm80 224c0-17.7 14.3-32 32-32h96c17.7 0 32 14.3 32 32v16l44.9-29.9c2-1.3 4.4-2.1 6.8-2.1 6.8 0 12.3 5.5 12.3 12.3v103.4c0 6.8-5.5 12.3-12.3 12.3-2.4 0-4.8-.7-6.8-2.1l-44.9-29.9v16c0 17.7-14.3 32-32 32h-96c-17.7 0-32-14.3-32-32z"/></svg>