<svg viewBox="0 0 384 512" xmlns="http://www.w3.org/2000/svg"><path d="m48 448v-384c0-8.8 7.2-16 16-16h160v80c0 17.7 14.3 32 32 32h80v288c0 8.8-7.2 16-16 16h-256c-8.8 0-16-7.2-16-16zm16-448c-35.3 0-64 28.7-64 64v384c0 35.3 28.7 64 64 64h256c35.3 0 64-28.7 64-64v-293.5c0-17-6.7-33.3-18.7-45.3l-90.6-90.5c-12-12-28.2-18.7-45.2-18.7zm55 241.1c-3.8-12.7-17.2-19.9-29.9-16.1s-19.9 17.2-16.1 29.9l48 160c3 10.2 12.4 17.1 23 17.1s19.9-7 23-17.1l25-83.4 25 83.4c3 10.2 12.4 17.1 23 17.1s19.9-7 23-17.1l48-160c3.8-12.7-3.4-26.1-16.1-29.9s-26.1 3.4-29.9 16.1l-25 83.4-25-83.4c-3-10.2-12.4-17.1-23-17.1s-19.9 7-23 17.1l-25 83.4z"/></svg>