<svg viewBox="0 0 384 512" xmlns="http://www.w3.org/2000/svg"><path d="m0 24c0-13.3 10.7-24 24-24h336c13.3 0 24 10.7 24 24s-10.7 24-24 24h-8v19c0 40.3-16 79-44.5 107.5l-81.6 81.5 81.5 81.5c28.6 28.5 44.6 67.2 44.6 107.5v19h8c13.3 0 24 10.7 24 24s-10.7 24-24 24h-336c-13.3 0-24-10.7-24-24s10.7-24 24-24h8v-19c0-40.3 16-79 44.5-107.5l81.6-81.5-81.6-81.5c-28.5-28.5-44.5-67.2-44.5-107.5v-19h-8c-13.3 0-24-10.7-24-24zm110.5 347.5c-3.9 3.9-7.5 8.1-10.7 12.5h184.4c-3.2-4.4-6.8-8.6-10.7-12.5l-81.5-81.6-81.5 81.5zm173.7-243.5c12.8-17.6 19.8-39 19.8-61v-19h-224v19c0 22.1 7 43.4 19.8 61z"/></svg>