<svg viewBox="0 0 384 512" xmlns="http://www.w3.org/2000/svg"><path d="m24 0c-13.3 0-24 10.7-24 24s10.7 24 24 24h8v19c0 40.3 16 79 44.5 107.5l81.6 81.5-81.6 81.5c-28.5 28.5-44.5 67.2-44.5 107.5v19h-8c-13.3 0-24 10.7-24 24s10.7 24 24 24h336c13.3 0 24-10.7 24-24s-10.7-24-24-24h-8v-19c0-40.3-16-79-44.5-107.5l-81.6-81.5 81.5-81.5c28.6-28.5 44.6-67.2 44.6-107.5v-19h8c13.3 0 24-10.7 24-24s-10.7-24-24-24zm168 289.9 81.5 81.5c19.5 19.6 30.5 46 30.5 73.6v19h-224v-19c0-27.6 11-54 30.5-73.5zm0-67.9-81.5-81.5c-19.5-19.5-30.5-45.9-30.5-73.5v-19h224v19c0 27.6-11 54-30.5 73.5l-81.5 81.6z"/></svg>