<svg viewBox="0 0 576 512" xmlns="http://www.w3.org/2000/svg"><path d="m160 80h352c8.8 0 16 7.2 16 16v224c0 8.8-7.2 16-16 16h-21.2l-102.7-157.1c-4.4-6.8-12-10.9-20.1-10.9s-15.7 4.1-20.1 10.9l-52.2 79.8-12.4-16.9c-4.5-6.2-11.7-9.8-19.4-9.8s-14.8 3.6-19.4 9.8l-68.9 94.2h-15.6c-8.8 0-16-7.2-16-16v-224c0-8.8 7.2-16 16-16zm-64 16v224c0 35.3 28.7 64 64 64h352c35.3 0 64-28.7 64-64v-224c0-35.3-28.7-64-64-64h-352c-35.3 0-64 28.7-64 64zm-48 24c0-13.3-10.7-24-24-24s-24 10.7-24 24v224c0 75.1 60.9 136 136 136h320c13.3 0 24-10.7 24-24s-10.7-24-24-24h-320c-48.6 0-88-39.4-88-88zm208 24a32 32 0 1 0 -64 0 32 32 0 1 0 64 0z"/></svg>