<svg viewBox="0 0 512 512" xmlns="http://www.w3.org/2000/svg"><path d="m80 96v16c0 17.7 14.3 32 32 32h60.8c16.6-28.7 47.6-48 83.2-48h62c-7.1-27.6-32.2-48-62-48h-40.6c-3.8-27.1-27.2-48-55.4-48s-51.6 20.9-55.4 48h-40.6c-35.3 0-64 28.7-64 64v272c0 35.3 28.7 64 64 64h96v-48h-96c-8.8 0-16-7.2-16-16v-272c0-8.8 7.2-16 16-16zm64-40a16 16 0 1 1 32 0 16 16 0 1 1 -32 0zm112 408c-8.8 0-16-7.2-16-16v-256c0-8.8 7.2-16 16-16h128v48c0 17.7 14.3 32 32 32h48v192c0 8.8-7.2 16-16 16zm192 48c35.3 0 64-28.7 64-64v-220.1c0-12.7-5.1-24.9-14.1-33.9l-51.9-51.9c-9-9-21.2-14.1-33.9-14.1h-156.1c-35.3 0-64 28.7-64 64v256c0 35.3 28.7 64 64 64z"/></svg>