<svg viewBox="0 0 512 512" xmlns="http://www.w3.org/2000/svg"><path d="m441 58.9 12.1 12.1c9.4 9.4 9.4 24.6 0 33.9l-29.1 29.2-46.1-46.1 29.1-29.1c9.4-9.4 24.6-9.4 33.9 0zm-231.2 197.3 134.2-134.3 46.1 46.1-134.3 134.2c-2.9 2.9-6.5 5-10.4 6.1l-58.5 16.7 16.7-58.5c1.1-3.9 3.2-7.5 6.1-10.4zm163.3-231.2-197.3 197.2c-8.7 8.7-15 19.4-18.3 31.1l-28.6 100c-2.4 8.4-.1 17.4 6.1 23.6s15.2 8.5 23.6 6.1l100-28.6c11.8-3.4 22.5-9.7 31.1-18.3l197.3-197.2c28.1-28.1 28.1-73.7 0-101.8l-12.1-12.1c-28.1-28.1-73.7-28.1-101.8 0zm-285.1 39c-48.6 0-88 39.4-88 88v272c0 48.6 39.4 88 88 88h272c48.6 0 88-39.4 88-88v-112c0-13.3-10.7-24-24-24s-24 10.7-24 24v112c0 22.1-17.9 40-40 40h-272c-22.1 0-40-17.9-40-40v-272c0-22.1 17.9-40 40-40h112c13.3 0 24-10.7 24-24s-10.7-24-24-24z"/></svg>