<svg viewBox="0 0 448 512" xmlns="http://www.w3.org/2000/svg"><path d="m170.5 51.6-19 28.4h145l-19-28.4c-1.5-2.2-4-3.6-6.7-3.6h-93.7c-2.7 0-5.2 1.3-6.7 3.6zm147-26.6 36.7 55h13.8 48 8c13.3 0 24 10.7 24 24s-10.7 24-24 24h-8v304c0 44.2-35.8 80-80 80h-224c-44.2 0-80-35.8-80-80v-304h-8c-13.3 0-24-10.7-24-24s10.7-24 24-24h8 48 13.8l36.7-55.1c10.4-15.5 27.9-24.9 46.6-24.9h93.7c18.7 0 36.2 9.4 46.6 24.9zm-237.5 103v304c0 17.7 14.3 32 32 32h224c17.7 0 32-14.3 32-32v-304zm80 64v208c0 8.8-7.2 16-16 16s-16-7.2-16-16v-208c0-8.8 7.2-16 16-16s16 7.2 16 16zm80 0v208c0 8.8-7.2 16-16 16s-16-7.2-16-16v-208c0-8.8 7.2-16 16-16s16 7.2 16 16zm80 0v208c0 8.8-7.2 16-16 16s-16-7.2-16-16v-208c0-8.8 7.2-16 16-16s16 7.2 16 16z"/></svg>